<svg width="113" height="32" viewBox="0 0 113 32" fill="none" xmlns="http://www.w3.org/2000/svg">
    <path d="M109.796 0C108.213 0 106.926 1.33201 106.926 2.9693C106.926 4.60659 108.213 5.93857 109.796 5.93857C111.379 5.93857 112.667 4.60657 112.667 2.9693C112.667 1.33203 111.379 0 109.796 0ZM109.796 5.12137C108.649 5.12137 107.716 4.15597 107.716 2.9693C107.716 1.78263 108.649 0.817231 109.796 0.817231C110.943 0.817231 111.877 1.78263 111.877 2.9693C111.877 4.15597 110.943 5.12137 109.796 5.12137ZM110.839 2.5831C110.839 1.98371 110.433 1.61134 109.778 1.61134H108.808V4.32726H109.364V3.57057H109.778C109.802 3.57057 109.828 3.56993 109.855 3.56858L110.39 4.32729H111.079L110.427 3.40273C110.693 3.23076 110.839 2.9403 110.839 2.5831ZM109.778 2.99539H109.364V2.18654H109.778C110.283 2.18654 110.283 2.48498 110.283 2.5831C110.283 2.68504 110.283 2.99539 109.778 2.99539Z"
          fill="#2B2D3A"></path>
    <path d="M22.2463 0H38.034V4.45393H22.2463V0Z" fill="#2B2D3A"></path>
    <path d="M22.2463 17.8157H38.034V22.2696H22.2463V17.8157Z" fill="#2B2D3A"></path>
    <path d="M22.2463 8.90786H38.034V13.3618H22.2463V8.90786Z" fill="#2B2D3A"></path>
    <path d="M0 22.2696V0H7.89718C11.0599 0 13.6441 1.06046 15.6497 3.18138C17.6554 5.28109 18.6582 7.93224 18.6582 11.1348C18.6582 14.3162 17.6457 16.9674 15.6208 19.0883C13.6152 21.2092 11.0406 22.2696 7.89718 22.2696H0ZM4.45482 17.8475H7.89718C9.72925 17.8475 11.2045 17.2325 12.3231 16.0023C13.4416 14.751 14.0009 13.1285 14.0009 11.1348C14.0009 9.16237 13.432 7.55047 12.2941 6.29913C11.1756 5.04779 9.70996 4.42212 7.89718 4.42212H4.45482V17.8475Z"
          fill="#2B2D3A"></path>
    <path d="M41.6221 22.2696V0H45.8816L55.7207 13.7117V0H60.2802V22.2696H56.3506L46.1816 8.11251V22.2696H41.6221Z"
          fill="#2B2D3A"></path>
    <path d="M74.636 22.2696C71.5567 22.2696 68.9872 21.2033 66.9277 19.0707C64.8881 16.9176 63.8683 14.2723 63.8683 11.1348C63.8683 8.01789 64.8981 5.38286 66.9577 3.22971C69.0172 1.07657 71.6367 0 74.816 0C76.6356 0 78.1652 0.307592 79.405 0.922775C80.6447 1.51745 81.8244 2.37871 82.9442 3.50655L80.1848 6.76702C79.285 5.92627 78.4352 5.32134 77.6354 4.95223C76.8555 4.56261 75.9057 4.3678 74.786 4.3678C73.0264 4.3678 71.5667 5.024 70.4069 6.33639C69.2672 7.62828 68.6973 9.22776 68.6973 11.1348C68.6973 13.0214 69.2672 14.6209 70.4069 15.9333C71.5667 17.2456 73.0264 17.9018 74.786 17.9018C75.9057 17.9018 76.8755 17.6968 77.6953 17.2867C78.5152 16.8765 79.2104 16.45 80.1302 15.5888L83.2441 18.6093C82.1044 19.8602 80.8647 20.783 79.5249 21.3776C78.2052 21.9723 76.5756 22.2696 74.636 22.2696Z"
          fill="#2B2D3A"></path>
    <path d="M65.6761 28.8021C65.6761 27.8935 65.9632 27.1333 66.5372 26.5217C67.1113 25.91 67.8318 25.6042 68.6987 25.6042C69.5599 25.6042 70.2775 25.907 70.8516 26.5128C71.4314 27.1126 71.7213 27.8757 71.7213 28.8021C71.7213 29.7107 71.4314 30.4738 70.8516 31.0914C70.2775 31.6971 69.5599 32 68.6987 32C67.8376 32 67.1171 31.7001 66.5372 31.1003C65.9632 30.5005 65.6761 29.7344 65.6761 28.8021ZM66.1756 28.8021C66.1756 29.5741 66.4167 30.2244 66.8989 30.7529C67.3869 31.2755 67.9868 31.5368 68.6987 31.5368C69.4336 31.5368 70.0364 31.2755 70.5071 30.7529C70.9836 30.2244 71.2219 29.5741 71.2219 28.8021C71.2219 28.0122 70.9779 27.362 70.4899 26.8513C70.0077 26.3287 69.4106 26.0674 68.6987 26.0674C67.9811 26.0674 67.3812 26.3287 66.8989 26.8513C66.4167 27.3679 66.1756 28.0182 66.1756 28.8021Z"
          fill="#2B2D3A"></path>
    <path d="M73.3108 31.9198H72.863V27.9113H73.3108V28.4725C73.4715 28.2884 73.6782 28.137 73.9308 28.0182C74.1891 27.8994 74.4475 27.84 74.7058 27.84C75.2455 27.84 75.6502 27.9855 75.92 28.2765C76.1899 28.5675 76.3248 29.0188 76.3248 29.6305V31.9198H75.877V29.7196C75.877 28.7575 75.4522 28.2765 74.6025 28.2765C74.3556 28.2765 74.1145 28.3359 73.8791 28.4547C73.6437 28.5675 73.4543 28.713 73.3108 28.8912V31.9198Z"
          fill="#2B2D3A"></path>
    <path d="M77.606 30.8865V25.6843H78.0538V30.6371C78.0538 30.9518 78.0969 31.1805 78.183 31.323C78.2691 31.4655 78.4126 31.5368 78.6135 31.5368C78.8087 31.5368 78.9896 31.4715 79.1561 31.3408L79.268 31.706C79.0441 31.8842 78.7714 31.9733 78.4499 31.9733C77.8873 31.9733 77.606 31.611 77.606 30.8865Z"
          fill="#2B2D3A"></path>
    <path d="M80.6995 31.9198H80.2517V27.9113H80.6995V31.9198ZM80.1742 26.3524C80.1742 26.2633 80.2057 26.1921 80.2689 26.1386C80.332 26.0852 80.4067 26.0585 80.4928 26.0585C80.5674 26.0585 80.6334 26.0882 80.6909 26.1475C80.754 26.201 80.7856 26.2693 80.7856 26.3524C80.7856 26.4534 80.7569 26.5335 80.6995 26.5929C80.6478 26.6523 80.5789 26.682 80.4928 26.682C80.4009 26.682 80.3234 26.6523 80.2603 26.5929C80.2029 26.5335 80.1742 26.4534 80.1742 26.3524Z"
          fill="#2B2D3A"></path>
    <path d="M82.7296 31.9198H82.2818V27.9113H82.7296V28.4725C82.8903 28.2884 83.097 28.137 83.3496 28.0182C83.6079 27.8994 83.8663 27.84 84.1246 27.84C84.6643 27.84 85.069 27.9855 85.3388 28.2765C85.6087 28.5675 85.7436 29.0188 85.7436 29.6305V31.9198H85.2958V29.7196C85.2958 28.7575 84.8709 28.2765 84.0213 28.2765C83.7744 28.2765 83.5333 28.3359 83.2979 28.4547C83.0625 28.5675 82.8731 28.713 82.7296 28.8912V31.9198Z"
          fill="#2B2D3A"></path>
    <path d="M90.0905 31.0736L90.2369 31.4299C89.8867 31.81 89.4102 32 88.8074 32C88.1873 32 87.6907 31.81 87.3176 31.4299C86.9387 31.0498 86.7492 30.545 86.7492 29.9156C86.7492 29.3098 86.9214 28.811 87.2659 28.419C87.6161 28.0271 88.0984 27.8311 88.7126 27.8311C89.2121 27.8311 89.6312 27.9974 89.9699 28.33C90.3029 28.6566 90.4694 29.0931 90.4694 29.6394C90.4694 29.7819 90.4608 29.9067 90.4435 30.0135H87.2487C87.2659 30.4946 87.418 30.8746 87.7051 31.1538C87.9921 31.4269 88.3682 31.5635 88.8332 31.5635C89.3728 31.5635 89.7919 31.4002 90.0905 31.0736ZM88.6696 28.2676C88.2562 28.2676 87.9204 28.3923 87.662 28.6417C87.4094 28.8912 87.263 29.2207 87.2229 29.6305H90.013C90.0072 29.2089 89.8838 28.8763 89.6427 28.6328C89.4016 28.3893 89.0772 28.2676 88.6696 28.2676Z"
          fill="#2B2D3A"></path>
    <path d="M96.6246 30.3699C96.6246 30.0967 96.5471 29.8621 96.392 29.6661C96.237 29.4702 96.0447 29.3217 95.8151 29.2207C95.5854 29.1198 95.3357 29.0099 95.0659 28.8912C94.796 28.7664 94.5463 28.6447 94.3167 28.5259C94.087 28.4072 93.8947 28.232 93.7397 28.0004C93.5847 27.7628 93.5072 27.4837 93.5072 27.163C93.5072 26.7117 93.6651 26.3405 93.9808 26.0495C94.3023 25.7526 94.7329 25.6042 95.2726 25.6042C95.9787 25.6042 96.5183 25.815 96.8915 26.2366L96.6332 26.6018C96.2887 26.2455 95.8409 26.0674 95.2898 26.0674C94.8937 26.0674 94.5808 26.1683 94.3511 26.3702C94.1215 26.5662 94.0067 26.8305 94.0067 27.163C94.0067 27.4303 94.0842 27.6619 94.2392 27.8578C94.3942 28.0479 94.5865 28.1904 94.8161 28.2854C95.0458 28.3804 95.2955 28.4873 95.5653 28.6061C95.8352 28.7189 96.0849 28.8347 96.3145 28.9535C96.5442 29.0723 96.7365 29.2534 96.8915 29.4969C97.0465 29.7344 97.124 30.0225 97.124 30.361C97.124 30.8479 96.9403 31.2428 96.5729 31.5457C96.2055 31.8486 95.7491 32 95.2037 32C94.8305 32 94.4631 31.9198 94.1014 31.7595C93.7455 31.5873 93.4957 31.3675 93.3522 31.1003L93.6364 30.7618C93.8086 30.9934 94.0382 31.1805 94.3253 31.323C94.6123 31.4655 94.9023 31.5368 95.1951 31.5368C95.5854 31.5368 95.9213 31.4329 96.2026 31.225C96.4839 31.0231 96.6246 30.7381 96.6246 30.3699Z"
          fill="#2B2D3A"></path>
    <path d="M98.1824 30.3966V26.7978H98.6301V27.9113H100.189V28.3478H98.6301V30.3253C98.6301 31.133 98.9201 31.5368 99.4999 31.5368C99.7295 31.5368 99.9362 31.4655 100.12 31.323L100.266 31.6882C100.031 31.8783 99.741 31.9733 99.3966 31.9733C98.5871 31.9733 98.1824 31.4477 98.1824 30.3966Z"
          fill="#2B2D3A"></path>
    <path d="M102.868 32C102.271 32 101.783 31.804 101.404 31.4121C101.025 31.0201 100.835 30.5213 100.835 29.9156C100.835 29.3098 101.025 28.811 101.404 28.419C101.783 28.0271 102.271 27.8311 102.868 27.8311C103.465 27.8311 103.953 28.0271 104.332 28.419C104.711 28.811 104.9 29.3098 104.9 29.9156C104.9 30.5213 104.711 31.0201 104.332 31.4121C103.953 31.804 103.465 32 102.868 32ZM102.868 31.5635C103.333 31.5635 103.706 31.4121 103.987 31.1092C104.28 30.8004 104.426 30.4025 104.426 29.9156C104.426 29.4345 104.28 29.0396 103.987 28.7308C103.694 28.422 103.321 28.2676 102.868 28.2676C102.42 28.2676 102.047 28.422 101.748 28.7308C101.455 29.0396 101.309 29.4345 101.309 29.9156C101.309 30.3966 101.455 30.7915 101.748 31.1003C102.041 31.4091 102.414 31.5635 102.868 31.5635Z"
          fill="#2B2D3A"></path>
    <path d="M106.445 31.9198H105.997V27.9113H106.445V28.4458C106.703 28.0419 107.05 27.84 107.487 27.84C107.757 27.84 107.957 27.8905 108.09 27.9915L107.934 28.4279C107.768 28.327 107.587 28.2765 107.392 28.2765C107.007 28.2765 106.692 28.4933 106.445 28.9268V31.9198Z"
          fill="#2B2D3A"></path>
    <path d="M111.897 31.0736L112.043 31.4299C111.693 31.81 111.216 32 110.614 32C109.994 32 109.497 31.81 109.124 31.4299C108.745 31.0498 108.555 30.545 108.555 29.9156C108.555 29.3098 108.728 28.811 109.072 28.419C109.422 28.0271 109.905 27.8311 110.519 27.8311C111.018 27.8311 111.437 27.9974 111.776 28.33C112.109 28.6566 112.276 29.0931 112.276 29.6394C112.276 29.7819 112.267 29.9067 112.25 30.0135H109.055C109.072 30.4946 109.224 30.8746 109.511 31.1538C109.798 31.4269 110.174 31.5635 110.639 31.5635C111.179 31.5635 111.598 31.4002 111.897 31.0736ZM110.476 28.2676C110.062 28.2676 109.727 28.3923 109.468 28.6417C109.216 28.8912 109.069 29.2207 109.029 29.6305H111.819C111.813 29.2089 111.69 28.8763 111.449 28.6328C111.208 28.3893 110.883 28.2676 110.476 28.2676Z"
          fill="#2B2D3A"></path>
    <path d="M95.0573 22.2696C98.0938 22.2696 100.618 21.1931 102.63 19.0399C104.155 17.4075 105.107 15.5147 105.487 13.3618H100.801C100.529 14.3305 100.066 15.1979 99.4127 15.964C98.293 17.2559 96.8602 17.9018 95.1142 17.9018C93.3683 17.9018 91.9259 17.2456 90.7873 15.9333C90.1272 15.1726 89.6585 14.3154 89.3811 13.3618H84.6794C85.0506 15.5273 85.9859 17.42 87.4851 19.0399C89.4968 21.1931 92.0208 22.2696 95.0573 22.2696Z"
          fill="#2B2D3A"></path>
    <path d="M84.6835 8.90786C85.0598 6.75953 86.0032 4.87707 87.5136 3.26047C89.5442 1.08682 92.0778 0 95.1142 0C98.1507 0 100.665 1.07657 102.658 3.22971C104.171 4.84965 105.116 6.74237 105.49 8.90786H100.79C100.513 7.95425 100.044 7.09709 99.3843 6.33639C98.2456 5.024 96.8033 4.3678 95.0573 4.3678C93.3113 4.3678 91.8785 5.024 90.7588 6.33639C90.1064 7.08912 89.6441 7.94628 89.3718 8.90786H84.6835Z"
          fill="#2B2D3A"></path>
</svg>