<svg class="w-100 h-auto" width="540" height="390" viewBox="0 0 540 390" fill="none" xmlns="http://www.w3.org/2000/svg">
    <path d="M264.616 156.848V31.2852h76.931l80.872 47.9414v77.6214H264.616z" fill="#C7CED1"></path>
    <path d="M341.409 31.7852l80.51 47.7263v76.8355H265.116V31.7852h76.293zm.274-1h-77.567V157.347h158.803V78.9418l-81.236-48.1566z"
          fill="#5C6770"></path>
    <path d="M187.622 156.848V31.2854h122.536l80.864 44.291v81.2716h-203.4z" fill="#E8E8E8"></path>
    <path d="M310.03 31.7854l80.492 44.087v80.4756h-202.4V31.7854H310.03zm.256-1H187.122V157.348h204.4V75.28l-81.236-44.4946z"
          fill="#5C6770"></path>
    <path d="M247.465 110.887h-45.461v45.461h45.461v-45.461z" fill="#C7CED1"></path>
    <path d="M246.465 111.887v43.461h-43.461v-43.461h43.461zm1-2h-45.461c-.552 0-1 .447-1 1v46.461h47.461v-46.461c0-.553-.448-1-1-1z"
          fill="#5C6770"></path>
    <path d="M247.465 109.887h-45.461c-.552 0-1 .447-1 1v3.389h47.461v-3.389c0-.553-.448-1-1-1z" fill="#5C6770"></path>
    <path d="M201.345 119.363h46.779M201.345 124.449h46.779M201.345 129.536h46.779M201.345 134.622h46.779M201.345 139.709h46.779M201.345 144.795h46.779M201.345 149.882h46.779"
          stroke="#5C6770" stroke-miterlimit="10"></path>
    <path d="M312.052 110.887h-45.46v45.461h45.46v-45.461z" fill="#C7CED1"></path>
    <path d="M311.052 111.887v43.461h-43.46v-43.461h43.46zm1-2h-45.46c-.553 0-1 .447-1 1v46.461h47.46v-46.461c0-.553-.447-1-1-1z"
          fill="#5C6770"></path>
    <path d="M312.052 109.887h-45.46c-.553 0-1 .447-1 1v3.389h47.46v-3.389c0-.553-.447-1-1-1z" fill="#5C6770"></path>
    <path d="M265.932 119.363h46.78M265.932 124.449h46.78M265.932 129.536h46.78M265.932 134.622h46.78M265.932 139.709h46.78M265.932 144.795h46.78M265.932 149.882h46.78"
          stroke="#5C6770" stroke-miterlimit="10"></path>
    <path d="M376.639 110.887h-45.461v45.461h45.461v-45.461z" fill="#C7CED1"></path>
    <path d="M375.64 111.887v43.461h-43.461v-43.461h43.461zm1-2h-45.461c-.553 0-1 .447-1 1v46.461h47.461v-46.461c0-.553-.448-1-1-1z"
          fill="#5C6770"></path>
    <path d="M376.64 109.887h-45.461c-.553 0-1 .447-1 1v3.389h47.461v-3.389c0-.553-.448-1-1-1z" fill="#5C6770"></path>
    <path d="M330.52 119.363h46.779M330.52 124.449h46.779M330.52 129.536h46.779M330.52 134.622h46.779M330.52 139.709h46.779M330.52 144.795h46.779M330.52 149.882h46.779"
          stroke="#5C6770" stroke-miterlimit="10"></path>
    <path d="M305.469 100.6h-32.294c-.552 0-1-.447-1-.9996V88.5327c0-.5523.448-1 1-1h32.294c.552 0 1 .4477 1 1v11.0677c0 .5526-.448.9996-1 .9996z"
          fill="#E8E8E8" stroke="#5C6770" stroke-miterlimit="10"></path>
    <path d="M296.231 98.9261h-21.676c-.244 0-.443-.2042-.443-.4537v-8.8116c0-.2496.199-.4538.443-.4538h13.337l8.339 9.7191z"
          fill="#fff"></path>
    <path d="M303.531 98.9263h-28.418c-.552 0-1-.4478-1-1v-7.7195c0-.5523.448-1 1-1h28.418c.552 0 1 .4477 1 1v7.7195c0 .5522-.448 1-1 1z"
          stroke="#5C6770" stroke-miterlimit="10"></path>
    <path d="M240.882 100.6h-32.294c-.553 0-1-.447-1-.9996V88.5327c0-.5523.447-1 1-1h32.294c.552 0 1 .4477 1 1v11.0677c0 .5526-.448.9996-1 .9996z"
          fill="#E8E8E8" stroke="#5C6770" stroke-miterlimit="10"></path>
    <path d="M231.644 98.9261h-21.676c-.244 0-.443-.2042-.443-.4537v-8.8116c0-.2496.199-.4538.443-.4538h13.337l8.339 9.7191z"
          fill="#fff"></path>
    <path d="M238.944 98.9263h-28.418c-.552 0-1-.4478-1-1v-7.7195c0-.5523.448-1 1-1h28.418c.552 0 1 .4477 1 1v7.7195c0 .5522-.448 1-1 1z"
          stroke="#5C6770" stroke-miterlimit="10"></path>
    <path d="M370.056 100.6h-32.294c-.552 0-1-.447-1-.9996V88.5327c0-.5523.448-1 1-1h32.294c.552 0 1 .4477 1 1v11.0677c0 .5526-.448.9996-1 .9996z"
          fill="#E8E8E8" stroke="#5C6770" stroke-miterlimit="10"></path>
    <path d="M360.818 98.9261h-21.676c-.243 0-.442-.2042-.442-.4537v-8.8116c0-.2496.199-.4538.442-.4538h13.338l8.338 9.7191z"
          fill="#fff"></path>
    <path d="M368.118 98.9263H339.7c-.552 0-1-.4478-1-1v-7.7195c0-.5523.448-1 1-1h28.418c.552 0 1 .4477 1 1v7.7195c0 .5522-.448 1-1 1z"
          stroke="#5C6770" stroke-miterlimit="10"></path>
    <path d="M338.906 30.4282h-161.17v1.9776h161.17v-1.9776z" fill="#5C6770"></path>
    <path d="M342.122 30.7852h-33.813l89.851 50.184 33.799-.0092-89.837-50.1748z" fill="#08A045" stroke="#5C6770"
          stroke-width=".5" stroke-miterlimit="10"></path>
    <path d="M428.938 157.018h-13.094M468 157h-26M165 157h-26M178.412 157.018h13.095" stroke="#5C6770"
          stroke-miterlimit="10"></path>
    <path d="M422.919 131.859h-31.397v7.032h31.397v-7.032z" fill="#5C6770"></path>
    <path d="M210.653 55.9202c1.066 0 1.93-.864 1.93-1.9298 0-1.0658-.864-1.9299-1.93-1.9299-1.065 0-1.929.8641-1.929 1.9299 0 1.0658.864 1.9298 1.929 1.9298z"
          fill="#08A045"></path>
    <path d="M217.678 51.0846c-.552-1.3277-.587-2.721-.201-3.9137l.011.0039c-.003-.0039-.007-.0077-.011-.0077-1.197.3859-2.587.3512-3.915-.1969-1.324-.5519-2.335-1.513-2.906-2.6284h-.004c-.572 1.1154-1.583 2.0765-2.907 2.6284-1.328.5481-2.722.5828-3.915.1969v.0038c.382 1.1927.352 2.586-.201 3.9137-.548 1.3239-1.509 2.3351-2.625 2.9064 1.116.5712 2.077 1.5786 2.625 2.9063.553 1.3239.583 2.7172.201 3.9098l-.011-.0038c.004.0038.007.0077.011.0115 1.193-.3859 2.587-.3512 3.915.1969 1.324.5481 2.335 1.5091 2.907 2.6246l-.008.0038h.019l-.007-.0038c.571-1.1155 1.582-2.0765 2.906-2.6246 1.328-.5481 2.718-.5828 3.915-.1969.008-.0038.011-.0077.019-.0154l-.019.0077c-.386-1.1926-.351-2.5859.201-3.9098.548-1.3277 1.509-2.3351 2.625-2.9063-1.116-.5713-2.077-1.5825-2.625-2.9064zm-.112 5.7664c-1.328.548-2.691.548-3.884.1659.382 1.1927.382 2.5551-.166 3.8829-1.324-.552-2.289-1.513-2.86-2.6285h-.004c-.572 1.1155-1.537 2.0765-2.861 2.6285-.544-1.3278-.548-2.6902-.162-3.8829h-.004c-1.193.3821-2.556.3821-3.88-.1659.552-1.3239 1.514-2.285 2.629-2.8562v-.0038c-1.115-.5713-2.077-1.5362-2.629-2.86 1.324-.5481 2.687-.5481 3.88-.166h.004c-.386-1.1927-.382-2.5551.162-3.8829 1.324.552 2.289 1.5131 2.861 2.6285h.004c.571-1.1154 1.536-2.0765 2.86-2.6285.548 1.3278.548 2.6902.166 3.8829 1.193-.3821 2.556-.3821 3.884.166-.552 1.3238-1.514 2.2849-2.629 2.8561v.0039c1.115.5712 2.077 1.5361 2.629 2.86z"
          fill="#08A045"></path>
    <path d="M227.311 55.5169c-.806 0-1.43-.6718-1.43-1.5342 0-.8622.614-1.5173 1.43-1.5173.6 0 1.102.3213 1.345.8686h1.495c-.271-1.3701-1.39-2.284-2.831-2.284-1.692 0-2.965 1.2559-2.965 2.9242 0 1.6682 1.282 2.9579 2.956 2.9579 1.457 0 2.597-.9493 2.859-2.3486h-1.516c-.254.5951-.734.9334-1.343.9334zM235.65 51.7312c-.481-.4291-1.114-.6809-1.829-.6809-1.675 0-2.92 1.254-2.92 2.9326 0 1.685 1.245 2.9494 2.92 2.9494.702 0 1.326-.2453 1.804-.6639l.13.4981h1.18v-5.5671l-1.124-.0002-.161.532zm-1.706 3.7775c-.875 0-1.517-.6532-1.517-1.5258 0-.8725.642-1.5258 1.517-1.5258.874 0 1.515.6514 1.515 1.5258 0 .8745-.641 1.5258-1.515 1.5258zM240.686 55.5169c-.806 0-1.43-.6718-1.43-1.5342 0-.8622.614-1.5173 1.43-1.5173.6 0 1.102.3213 1.345.8686h1.495c-.271-1.3701-1.39-2.284-2.831-2.284-1.692 0-2.965 1.2559-2.965 2.9242 0 1.6682 1.282 2.9579 2.956 2.9579 1.457 0 2.597-.9493 2.859-2.3486h-1.515c-.254.5951-.735.9334-1.344.9334zM246.475 54.5872v-2.1696h1.511v-1.2101h-1.537v-1.4526h-.287l-2.199 2.3375v.3252h1.007v2.3692c0 1.2353.752 1.9879 1.977 1.9879h1.07v-1.3402h-.685c-.548 0-.857-.3094-.857-.8473zM252.796 54.2527c0 .7815-.409 1.2641-1.106 1.2641-.696 0-1.114-.4722-1.114-1.2641v-3.0452h-1.506v3.2167c0 1.5033 1.047 2.508 2.62 2.508 1.574 0 2.611-1.0047 2.611-2.508v-3.2167h-1.505v3.0452zM257.797 53.3453c-.579-.105-1.054-.1911-1.054-.5624 0-.3185.277-.5331.745-.5331.525 0 .835.2182.841.6607h1.428c-.005-1.1125-.887-1.8605-2.231-1.8605-1.344 0-2.24.7273-2.24 1.7808 0 1.3121 1.131 1.5501 2.021 1.698.588.0984 1.071.2137 1.071.5943 0 .372-.374.5614-.792.5614-.54 0-.919-.2475-.927-.7433h-1.468c.008 1.1931.941 1.9907 2.339 1.9907v.0002c1.406 0 2.334-.7395 2.334-1.8754 0-1.3561-1.159-1.5484-2.067-1.7114z"
          fill="#232628"></path>
    <path d="M112.484 343.907H72.2493M137.163 343.907h39.593M189.101 343.907h25.824" stroke="#5C6770"
          stroke-miterlimit="10" stroke-linecap="round"></path>
    <path d="M111.346 321.134l-1.809 18.417c-.145.704-.772 1.34-1.731 1.759l-5.654 2.392v.209h51.639v-.209l-6.152-2.732c-.94-.431-1.542-1.073-1.663-1.777l-1.379-18.059h-33.251zM212.944 302.974H43V203c0-1.657 1.3431-3 3-3h163.944c1.657 0 3 1.343 3 3v99.974z"
          fill="#E8E8E8" stroke="#5C6770" stroke-miterlimit="10"></path>
    <path d="M208.397 206.013H47.5464v90.949H208.397v-90.949z" fill="#fff" stroke="#5C6770" stroke-width=".5"
          stroke-miterlimit="10"></path>
    <path d="M209.944 321.134H46c-1.6569 0-3-1.343-3-3v-15.16h169.944v15.16c0 1.657-1.343 3-3 3z" fill="#C7CED1"
          stroke="#5C6770" stroke-miterlimit="10"></path>
    <path d="M57.0082 206.013h-9.4618v17.716h9.4618v-17.716z" fill="#0B6E4F"></path>
    <path d="M57.0082 223.729h-9.4618v3.947c0 2.05 1.6622 3.712 3.7126 3.712h2.0366c2.0504 0 3.7126-1.662 3.7126-3.712v-3.947z"
          fill="#073B3A"></path>
    <path d="M66.4701 223.729h-9.4618v3.947c0 2.05 1.6622 3.712 3.7127 3.712h2.0365c2.0504 0 3.7126-1.662 3.7126-3.712v-3.947z"
          fill="#0B6E4F"></path>
    <path d="M208.397 223.729h-9.461v3.947c0 2.05 1.662 3.712 3.712 3.712h2.037c2.05 0 3.712-1.662 3.712-3.712v-3.947zM189.474 223.729h-9.462v3.947c0 2.05 1.662 3.712 3.713 3.712h2.036c2.051 0 3.713-1.662 3.713-3.712v-3.947z"
          fill="#073B3A"></path>
    <path d="M198.936 223.729h-9.462v3.947c0 2.05 1.662 3.712 3.713 3.712h2.036c2.05 0 3.713-1.662 3.713-3.712v-3.947z"
          fill="#0B6E4F"></path>
    <path d="M170.55 223.729h-9.462v3.947c0 2.05 1.663 3.712 3.713 3.712h2.037c2.05 0 3.712-1.662 3.712-3.712v-3.947z"
          fill="#073B3A"></path>
    <path d="M180.012 223.729h-9.462v3.947c0 2.05 1.662 3.712 3.713 3.712h2.036c2.051 0 3.713-1.662 3.713-3.712v-3.947z"
          fill="#0B6E4F"></path>
    <path d="M151.627 223.729h-9.462v3.947c0 2.05 1.662 3.712 3.712 3.712h2.037c2.05 0 3.713-1.662 3.713-3.712v-3.947z"
          fill="#073B3A"></path>
    <path d="M161.088 223.729h-9.462v3.947c0 2.05 1.663 3.712 3.713 3.712h2.037c2.05 0 3.712-1.662 3.712-3.712v-3.947z"
          fill="#0B6E4F"></path>
    <path d="M132.703 223.729h-9.462v3.947c0 2.05 1.662 3.712 3.713 3.712h2.036c2.051 0 3.713-1.662 3.713-3.712v-3.947z"
          fill="#073B3A"></path>
    <path d="M142.165 223.729h-9.462v3.947c0 2.05 1.662 3.712 3.713 3.712h2.036c2.051 0 3.713-1.662 3.713-3.712v-3.947z"
          fill="#0B6E4F"></path>
    <path d="M113.779 223.729h-9.462v3.947c0 2.05 1.663 3.712 3.713 3.712h2.037c2.05 0 3.712-1.662 3.712-3.712v-3.947z"
          fill="#073B3A"></path>
    <path d="M123.241 223.729h-9.462v3.947c0 2.05 1.663 3.712 3.713 3.712h2.036c2.051 0 3.713-1.662 3.713-3.712v-3.947z"
          fill="#0B6E4F"></path>
    <path d="M94.8556 223.729h-9.4618v3.947c0 2.05 1.6622 3.712 3.7127 3.712h2.0365c2.0504 0 3.7126-1.662 3.7126-3.712v-3.947z"
          fill="#073B3A"></path>
    <path d="M104.317 223.729h-9.4615v3.947c0 2.05 1.6622 3.712 3.7126 3.712h2.0369c2.05 0 3.712-1.662 3.712-3.712v-3.947z"
          fill="#0B6E4F"></path>
    <path d="M75.932 223.729h-9.4618v3.947c0 2.05 1.6622 3.712 3.7127 3.712h2.0365c2.0504 0 3.7126-1.662 3.7126-3.712v-3.947z"
          fill="#073B3A"></path>
    <path d="M85.3937 223.729h-9.4618v3.947c0 2.05 1.6622 3.712 3.7126 3.712h2.0366c2.0504 0 3.7126-1.662 3.7126-3.712v-3.947z"
          fill="#0B6E4F"></path>
    <path d="M66.4701 206.013h-9.4618v17.716h9.4618v-17.716z" fill="#08A045"></path>
    <path d="M75.932 206.013h-9.4618v17.716h9.4618v-17.716z" fill="#0B6E4F"></path>
    <path d="M85.3937 206.013h-9.4618v17.716h9.4618v-17.716z" fill="#08A045"></path>
    <path d="M94.8556 206.013h-9.4618v17.716h9.4618v-17.716z" fill="#0B6E4F"></path>
    <path d="M104.317 206.013h-9.4615v17.716h9.4615v-17.716z" fill="#08A045"></path>
    <path d="M113.779 206.013h-9.462v17.716h9.462v-17.716z" fill="#0B6E4F"></path>
    <path d="M123.241 206.013h-9.462v17.716h9.462v-17.716z" fill="#08A045"></path>
    <path d="M132.703 206.013h-9.462v17.716h9.462v-17.716z" fill="#0B6E4F"></path>
    <path d="M142.165 206.013h-9.462v17.716h9.462v-17.716z" fill="#08A045"></path>
    <path d="M151.627 206.013h-9.462v17.716h9.462v-17.716z" fill="#0B6E4F"></path>
    <path d="M161.088 206.013h-9.462v17.716h9.462v-17.716z" fill="#08A045"></path>
    <path d="M170.55 206.013h-9.462v17.716h9.462v-17.716z" fill="#0B6E4F"></path>
    <path d="M180.012 206.013h-9.462v17.716h9.462v-17.716z" fill="#08A045"></path>
    <path d="M189.474 206.013h-9.462v17.716h9.462v-17.716z" fill="#0B6E4F"></path>
    <path d="M198.936 206.013h-9.462v17.716h9.462v-17.716z" fill="#08A045"></path>
    <path d="M208.397 206.013h-9.461v17.716h9.461v-17.716z" fill="#0B6E4F"></path>
    <path d="M208.397 206.013H47.5464v90.949H208.397v-90.949z" stroke="#5C6770" stroke-width=".5"
          stroke-miterlimit="10"></path>
    <path d="M115.583 250.5h26.834c.508 0 .996-.202 1.355-.561.359-.36.561-.847.561-1.356 0-.508-.202-.995-.561-1.355a1.9173 1.9173 0 00-1.355-.561h-26.834c-.508 0-.995.202-1.355.561-.359.36-.561.847-.561 1.355 0 .509.202.996.561 1.356.36.359.847.561 1.355.561zM147.605 255.689l-2.71-2.711c-.36-.359-.847-.561-1.356-.561H114.46c-.508 0-.995.202-1.355.561l-2.71 2.711c-.36.359-.562.847-.562 1.355v3.039A1.9173 1.9173 0 00111.75 262h1.917v13.417c0 .508.202.996.561 1.355.359.359.847.561 1.355.561h26.834c.508 0 .995-.202 1.355-.561.359-.359.561-.847.561-1.355V262h1.917a1.9173 1.9173 0 001.917-1.917v-3.039c0-.508-.202-.996-.562-1.355zm-5.188 19.728h-15.334v-11.5h-7.666v11.5h-3.834V262h26.834v13.417z"
          fill="#5C6770"></path>
    <path d="M138.583 263.917h-7.666v7.666h7.666v-7.666z" fill="#5C6770"></path>
    <path d="M394.626 343.693H362M404 343.693h32.106M441 343.693h20.941" stroke="#5C6770" stroke-miterlimit="10"
          stroke-linecap="round"></path>
    <path d="M416.42 325.226l-1.466 14.934c-.118.571-.626 1.087-1.404 1.427l-4.585 1.94v.168h41.874v-.168l-4.989-2.216c-.762-.349-1.25-.87-1.348-1.441l-1.119-14.644H416.42zM498.806 310.501H361v-81.068c0-1.344 1.089-2.433 2.433-2.433h132.94c1.344 0 2.433 1.089 2.433 2.433v81.068z"
          fill="#E8E8E8" stroke="#5C6770" stroke-miterlimit="10"></path>
    <path d="M495.119 231.875H364.687v73.75h130.432v-73.75z" fill="#fff" stroke="#5C6770" stroke-width=".5"
          stroke-miterlimit="10"></path>
    <path d="M496.373 325.226h-132.94c-1.344 0-2.433-1.089-2.433-2.433v-12.292h137.806v12.292c0 1.344-1.089 2.433-2.433 2.433z"
          fill="#C7CED1" stroke="#5C6770" stroke-miterlimit="10"></path>
    <path d="M372.359 231.875h-7.672v14.366h7.672v-14.366z" fill="#0B6E4F"></path>
    <path d="M372.359 246.241h-7.672v3.201c0 1.663 1.347 3.011 3.01 3.011h1.651c1.663 0 3.011-1.348 3.011-3.011v-3.201z"
          fill="#073B3A"></path>
    <path d="M380.032 246.241h-7.673v3.201c0 1.663 1.348 3.011 3.011 3.011h1.651c1.663 0 3.011-1.348 3.011-3.011v-3.201z"
          fill="#0B6E4F"></path>
    <path d="M495.119 246.241h-7.673v3.201c0 1.663 1.348 3.011 3.011 3.011h1.651c1.663 0 3.011-1.348 3.011-3.011v-3.201zM479.774 246.241h-7.672v3.201c0 1.663 1.347 3.011 3.01 3.011h1.652c1.662 0 3.01-1.348 3.01-3.011v-3.201z"
          fill="#073B3A"></path>
    <path d="M487.446 246.241h-7.672v3.201c0 1.663 1.348 3.011 3.01 3.011h1.652c1.663 0 3.01-1.348 3.01-3.011v-3.201z"
          fill="#0B6E4F"></path>
    <path d="M464.429 246.241h-7.672v3.201c0 1.663 1.347 3.011 3.01 3.011h1.652c1.662 0 3.01-1.348 3.01-3.011v-3.201z"
          fill="#073B3A"></path>
    <path d="M472.102 246.241h-7.673v3.201c0 1.663 1.348 3.011 3.011 3.011h1.651c1.663 0 3.011-1.348 3.011-3.011v-3.201z"
          fill="#0B6E4F"></path>
    <path d="M449.084 246.241h-7.673v3.201c0 1.663 1.348 3.011 3.011 3.011h1.651c1.663 0 3.011-1.348 3.011-3.011v-3.201z"
          fill="#073B3A"></path>
    <path d="M456.756 246.241h-7.672v3.201c0 1.663 1.348 3.011 3.011 3.011h1.651c1.663 0 3.01-1.348 3.01-3.011v-3.201z"
          fill="#0B6E4F"></path>
    <path d="M433.739 246.241h-7.672v3.201c0 1.663 1.348 3.011 3.01 3.011h1.652c1.662 0 3.01-1.348 3.01-3.011v-3.201z"
          fill="#073B3A"></path>
    <path d="M441.411 246.241h-7.672v3.201c0 1.663 1.348 3.011 3.01 3.011h1.652c1.662 0 3.01-1.348 3.01-3.011v-3.201z"
          fill="#0B6E4F"></path>
    <path d="M418.394 246.241h-7.672v3.201c0 1.663 1.348 3.011 3.01 3.011h1.652c1.662 0 3.01-1.348 3.01-3.011v-3.201z"
          fill="#073B3A"></path>
    <path d="M426.067 246.241h-7.673v3.201c0 1.663 1.348 3.011 3.011 3.011h1.651c1.663 0 3.011-1.348 3.011-3.011v-3.201z"
          fill="#0B6E4F"></path>
    <path d="M403.049 246.241h-7.673v3.201c0 1.663 1.348 3.011 3.011 3.011h1.651c1.663 0 3.011-1.348 3.011-3.011v-3.201z"
          fill="#073B3A"></path>
    <path d="M410.722 246.241h-7.673v3.201c0 1.663 1.348 3.011 3.011 3.011h1.651c1.663 0 3.011-1.348 3.011-3.011v-3.201z"
          fill="#0B6E4F"></path>
    <path d="M387.704 246.241h-7.672v3.201c0 1.663 1.348 3.011 3.01 3.011h1.652c1.662 0 3.01-1.348 3.01-3.011v-3.201z"
          fill="#073B3A"></path>
    <path d="M395.377 246.241h-7.673v3.201c0 1.663 1.348 3.011 3.011 3.011h1.651c1.663 0 3.011-1.348 3.011-3.011v-3.201z"
          fill="#0B6E4F"></path>
    <path d="M380.032 231.875h-7.673v14.366h7.673v-14.366z" fill="#08A045"></path>
    <path d="M387.704 231.875h-7.672v14.366h7.672v-14.366z" fill="#0B6E4F"></path>
    <path d="M395.377 231.875h-7.673v14.366h7.673v-14.366z" fill="#08A045"></path>
    <path d="M403.049 231.875h-7.673v14.366h7.673v-14.366z" fill="#0B6E4F"></path>
    <path d="M410.722 231.875h-7.673v14.366h7.673v-14.366z" fill="#08A045"></path>
    <path d="M418.394 231.875h-7.672v14.366h7.672v-14.366z" fill="#0B6E4F"></path>
    <path d="M426.067 231.875h-7.673v14.366h7.673v-14.366z" fill="#08A045"></path>
    <path d="M433.739 231.875h-7.672v14.366h7.672v-14.366z" fill="#0B6E4F"></path>
    <path d="M441.411 231.875h-7.672v14.366h7.672v-14.366z" fill="#08A045"></path>
    <path d="M449.084 231.875h-7.673v14.366h7.673v-14.366z" fill="#0B6E4F"></path>
    <path d="M456.756 231.875h-7.672v14.366h7.672v-14.366z" fill="#08A045"></path>
    <path d="M464.429 231.875h-7.672v14.366h7.672v-14.366z" fill="#0B6E4F"></path>
    <path d="M472.102 231.875h-7.673v14.366h7.673v-14.366z" fill="#08A045"></path>
    <path d="M479.774 231.875h-7.672v14.366h7.672v-14.366z" fill="#0B6E4F"></path>
    <path d="M487.446 231.875h-7.672v14.366h7.672v-14.366z" fill="#08A045"></path>
    <path d="M495.119 231.875h-7.673v14.366h7.673v-14.366z" fill="#0B6E4F"></path>
    <path d="M495.119 231.875H364.687v73.75h130.432v-73.75z" stroke="#5C6770" stroke-width=".5"
          stroke-miterlimit="10"></path>
    <path d="M91.3219 371.616c.056.116.112.236.168.36.056.12.106.244.15.372.048-.128.098-.254.15-.378.056-.128.114-.25.174-.366l2.73-5.01c.056-.112.118-.178.186-.198.068-.024.164-.036.288-.036h1.05V375h-1.236v-5.922c0-.096.002-.2.006-.312.008-.112.016-.226.024-.342l-2.772 5.124c-.108.212-.274.318-.498.318h-.198c-.228 0-.394-.106-.498-.318l-2.826-5.142c.012.12.022.238.03.354.008.112.012.218.012.318V375h-1.236v-8.64h1.05c.124 0 .22.012.288.036.068.02.13.086.186.198l2.772 5.022zM101.808 375c-.124 0-.218-.018-.282-.054-.064-.04-.118-.118-.162-.234l-.126-.498c-.156.144-.31.27-.462.378-.152.108-.31.2-.474.276-.16.076-.3339.132-.5219.168-.184.04-.388.06-.612.06-.248 0-.48-.034-.696-.102-.212-.068-.396-.17-.552-.306-.156-.14-.28-.312-.372-.516-.088-.204-.132-.444-.132-.72 0-.236.062-.466.186-.69.128-.224.336-.424.624-.6.292-.18.674-.328 1.146-.444.476-.116 1.0619-.182 1.7579-.198v-.408c0-.44-.094-.768-.282-.984-.188-.216-.464-.324-.828-.324-.2479 0-.4559.032-.6239.096-.168.06-.314.126-.438.198-.124.072-.234.14-.33.204-.096.06-.198.09-.306.09-.088 0-.164-.022-.228-.066a.629.629 0 01-.15-.174l-.234-.42c.692-.644 1.516-.966 2.4719-.966.352 0 .664.058.936.174.276.112.506.272.69.48.188.208.33.456.426.744.1.284.15.6.15.948V375h-.576zm-2.2499-.804c.336 0 .6239-.062.8639-.186.244-.128.48-.31.708-.546v-1.14c-.46.02-.848.058-1.1639.114-.316.056-.572.13-.768.222-.196.092-.338.2-.426.324a.6848.6848 0 00-.126.402c0 .144.022.268.066.372.048.1.112.184.192.252.084.064.18.112.288.144.112.028.234.042.366.042zM103.895 377.034v-8.154h.78c.176 0 .288.082.336.246l.102.642c.128-.148.264-.284.408-.408.144-.124.298-.23.462-.318.168-.088.346-.156.534-.204.192-.048.396-.072.612-.072.344 0 .656.07.936.21.28.136.52.336.72.6.2.264.354.592.462.984.112.388.168.834.168 1.338 0 .452-.062.874-.186 1.266-.12.388-.294.726-.522 1.014-.228.284-.504.508-.828.672-.324.16-.69.24-1.098.24-.36 0-.666-.056-.918-.168-.252-.116-.478-.276-.678-.48v2.592h-1.29zm2.802-7.23c-.332 0-.616.072-.852.216-.236.14-.456.342-.66.606v2.838c.18.232.376.396.588.492.216.092.454.138.714.138.504 0 .896-.184 1.176-.552.284-.368.426-.916.426-1.644 0-.376-.032-.696-.096-.96-.064-.268-.156-.486-.276-.654-.12-.168-.266-.29-.438-.366-.172-.076-.366-.114-.582-.114zM114.353 369.228c.064-.104.15-.188.258-.252.112-.064.228-.096.348-.096h1.008l-1.506 2.298c-.096.156-.196.282-.3.378-.104.096-.232.17-.384.222.196.056.358.142.486.258.132.112.25.258.354.438l1.518 2.526h-.888c-.228 0-.406-.038-.534-.114-.124-.076-.23-.188-.318-.336l-1.038-1.788c-.084-.152-.194-.264-.33-.336-.136-.072-.29-.108-.462-.108h-.606v2.688h-1.29v-6.126h1.29v2.574h.522c.168 0 .308-.032.42-.096.112-.064.208-.162.288-.294l1.164-1.836zM119.371 368.784c.376 0 .724.062 1.044.186.32.12.596.298.828.534.232.236.412.526.54.87.132.34.198.728.198 1.164 0 .2-.022.334-.066.402-.044.068-.124.102-.24.102h-3.93c.016.348.07.65.162.906.092.252.214.462.366.63.156.168.34.294.552.378.216.08.456.12.72.12.252 0 .47-.028.654-.084.184-.06.344-.124.48-.192.136-.072.252-.136.348-.192.096-.06.184-.09.264-.09.104 0 .184.04.24.12l.366.474c-.152.18-.324.332-.516.456s-.396.226-.612.306c-.216.076-.438.13-.666.162-.228.036-.45.054-.666.054-.424 0-.818-.07-1.182-.21-.36-.144-.674-.354-.942-.63-.264-.276-.472-.618-.624-1.026-.148-.408-.222-.878-.222-1.41 0-.424.066-.82.198-1.188.136-.368.328-.688.576-.96.252-.272.556-.486.912-.642.36-.16.766-.24 1.218-.24zm.024.936c-.468 0-.836.134-1.104.402-.268.268-.438.644-.51 1.128h3.042c0-.216-.032-.416-.096-.6-.06-.188-.15-.35-.27-.486-.12-.14-.27-.248-.45-.324-.176-.08-.38-.12-.612-.12zM122.443 368.88h5.808v.972h-2.256V375h-1.29v-5.148h-2.262v-.972zM134.416 368.88V375h-1.284v-5.148h-2.646V375h-1.29v-6.12h5.22zM141.525 368.88V375h-1.29v-5.118h-1.704c-.048.764-.122 1.424-.222 1.98-.096.552-.212 1.02-.348 1.404-.136.384-.288.696-.456.936-.168.236-.346.42-.534.552-.188.132-.382.22-.582.264-.196.044-.394.066-.594.066-.388 0-.582-.064-.582-.192v-.81h.336c.132 0 .266-.022.402-.066.14-.044.274-.13.402-.258.128-.132.25-.316.366-.552.12-.236.228-.546.324-.93.1-.388.186-.858.258-1.41.072-.556.128-1.218.168-1.986h4.056zM145.656 368.784c.376 0 .724.062 1.044.186.32.12.596.298.828.534.232.236.412.526.54.87.132.34.198.728.198 1.164 0 .2-.022.334-.066.402-.044.068-.124.102-.24.102h-3.93c.016.348.07.65.162.906.092.252.214.462.366.63.156.168.34.294.552.378.216.08.456.12.72.12.252 0 .47-.028.654-.084.184-.06.344-.124.48-.192.136-.072.252-.136.348-.192.096-.06.184-.09.264-.09.104 0 .184.04.24.12l.366.474c-.152.18-.324.332-.516.456s-.396.226-.612.306c-.216.076-.438.13-.666.162-.228.036-.45.054-.666.054-.424 0-.818-.07-1.182-.21-.36-.144-.674-.354-.942-.63-.264-.276-.472-.618-.624-1.026-.148-.408-.222-.878-.222-1.41 0-.424.066-.82.198-1.188.136-.368.328-.688.576-.96.252-.272.556-.486.912-.642.36-.16.766-.24 1.218-.24zm.024.936c-.468 0-.836.134-1.104.402-.268.268-.438.644-.51 1.128h3.042c0-.216-.032-.416-.096-.6-.06-.188-.15-.35-.27-.486-.12-.14-.27-.248-.45-.324-.176-.08-.38-.12-.612-.12zM149.469 375.006v-6.126h1.29v3.834c0 .088-.006.184-.018.288-.008.1-.02.202-.036.306.08-.184.162-.336.246-.456.004-.008.046-.066.126-.174.08-.108.182-.248.306-.42.128-.172.27-.366.426-.582.16-.22.322-.444.486-.672.388-.532.826-1.132 1.314-1.8.048-.08.112-.154.192-.222s.17-.102.27-.102h.78V375h-1.29v-3.834c0-.08.004-.17.012-.27s.02-.202.036-.306c-.04.088-.08.17-.12.246-.04.072-.08.136-.12.192-.008.008-.052.068-.132.18-.076.108-.178.248-.306.42-.124.172-.266.368-.426.588-.16.216-.322.438-.486.666-.388.532-.824 1.132-1.308 1.8-.048.076-.112.15-.192.222-.08.068-.17.102-.27.102h-.78zm2.766-7.65c.156 0 .286-.016.39-.048.108-.036.194-.092.258-.168.064-.08.11-.182.138-.306.028-.128.042-.286.042-.474h.756c.092 0 .16.04.204.12.044.076.066.16.066.252 0 .204-.044.388-.132.552-.084.16-.206.298-.366.414-.16.112-.356.2-.588.264-.228.06-.484.09-.768.09-.284 0-.542-.03-.774-.09-.228-.064-.422-.152-.582-.264-.16-.116-.284-.254-.372-.414-.084-.164-.126-.348-.126-.552 0-.092.022-.176.066-.252.044-.08.112-.12.204-.12h.756c0 .188.014.346.042.474.028.124.074.226.138.306.064.076.148.132.252.168.108.032.24.048.396.048zM160.745 370.08c-.04.052-.078.092-.114.12-.036.028-.088.042-.156.042s-.14-.024-.216-.072c-.072-.048-.16-.1-.264-.156-.1-.06-.222-.114-.366-.162s-.324-.072-.54-.072c-.28 0-.526.05-.738.15-.208.1-.384.244-.528.432-.14.184-.246.41-.318.678-.068.264-.102.562-.102.894 0 .344.038.65.114.918.076.268.184.494.324.678.144.184.316.324.516.42.204.096.432.144.684.144.248 0 .45-.03.606-.09.156-.06.286-.126.39-.198.104-.072.192-.138.264-.198.076-.06.156-.09.24-.09.104 0 .184.04.24.12l.366.474c-.148.18-.312.332-.492.456s-.37.226-.57.306c-.2.076-.408.13-.624.162-.216.036-.434.054-.654.054-.38 0-.736-.07-1.068-.21-.328-.144-.616-.35-.864-.618-.244-.272-.438-.602-.582-.99-.14-.392-.21-.838-.21-1.338 0-.452.064-.87.192-1.254.128-.388.314-.722.558-1.002.248-.28.554-.498.918-.654.364-.16.784-.24 1.26-.24.444 0 .834.072 1.17.216.34.144.642.348.906.612l-.342.468zM163.408 368.88v2.328h1.188c.424 0 .782.052 1.074.156.292.1.528.236.708.408.18.172.31.372.39.6.08.224.12.458.12.702 0 .284-.05.544-.15.78-.1.232-.248.434-.444.606-.192.172-.43.306-.714.402-.28.092-.602.138-.966.138h-2.43v-6.12h1.224zm5.988 0V375h-1.29v-6.12h1.29zm-5.988 3.258v1.926h1.206c.188 0 .352-.024.492-.072.144-.052.262-.12.354-.204a.7843.7843 0 00.21-.312c.048-.12.072-.252.072-.396 0-.128-.022-.248-.066-.36a.7172.7172 0 00-.198-.3c-.088-.088-.204-.156-.348-.204-.144-.052-.32-.078-.528-.078h-1.194zM368.026 375v-8.64h2.874c.552 0 1.024.054 1.416.162.392.104.714.254.966.45s.436.436.552.72c.12.28.18.596.18.948 0 .204-.032.402-.096.594-.06.192-.156.37-.288.534-.128.164-.29.314-.486.45-.196.132-.428.242-.696.33.612.128 1.07.354 1.374.678.308.324.462.746.462 1.266 0 .368-.07.706-.21 1.014-.136.304-.336.568-.6.792-.26.22-.582.392-.966.516s-.822.186-1.314.186h-3.168zm1.404-3.852v2.742h1.74c.316 0 .582-.036.798-.108.22-.076.398-.178.534-.306.14-.128.24-.278.3-.45.064-.176.096-.364.096-.564 0-.408-.14-.728-.42-.96-.276-.236-.714-.354-1.314-.354h-1.734zm0-.99h1.404c.6 0 1.048-.116 1.344-.348.296-.232.444-.566.444-1.002 0-.476-.14-.82-.42-1.032-.276-.212-.71-.318-1.302-.318h-1.47v2.7zM379.48 375c-.124 0-.218-.018-.282-.054-.064-.04-.118-.118-.162-.234l-.126-.498c-.156.144-.31.27-.462.378-.152.108-.31.2-.474.276-.16.076-.334.132-.522.168-.184.04-.388.06-.612.06-.248 0-.48-.034-.696-.102-.212-.068-.396-.17-.552-.306-.156-.14-.28-.312-.372-.516-.088-.204-.132-.444-.132-.72 0-.236.062-.466.186-.69.128-.224.336-.424.624-.6.292-.18.674-.328 1.146-.444.476-.116 1.062-.182 1.758-.198v-.408c0-.44-.094-.768-.282-.984-.188-.216-.464-.324-.828-.324-.248 0-.456.032-.624.096-.168.06-.314.126-.438.198-.124.072-.234.14-.33.204-.096.06-.198.09-.306.09-.088 0-.164-.022-.228-.066a.629.629 0 01-.15-.174l-.234-.42c.692-.644 1.516-.966 2.472-.966.352 0 .664.058.936.174.276.112.506.272.69.48.188.208.33.456.426.744.1.284.15.6.15.948V375h-.576zm-2.25-.804c.336 0 .624-.062.864-.186.244-.128.48-.31.708-.546v-1.14c-.46.02-.848.058-1.164.114-.316.056-.572.13-.768.222-.196.092-.338.2-.426.324a.6848.6848 0 00-.126.402c0 .144.022.268.066.372.048.1.112.184.192.252.084.064.18.112.288.144.112.028.234.042.366.042zM381.567 368.88h1.29v5.148h2.244v-5.148h1.29v5.148h2.244v-5.148h1.284V375h-8.352v-6.12zM394.481 375.006v-6.126h1.29v3.834c0 .088-.006.184-.018.288-.008.1-.02.202-.036.306.08-.184.162-.336.246-.456.004-.008.046-.066.126-.174.08-.108.182-.248.306-.42.128-.172.27-.366.426-.582.16-.22.322-.444.486-.672.388-.532.826-1.132 1.314-1.8.048-.08.112-.154.192-.222s.17-.102.27-.102h.78V375h-1.29v-3.834c0-.08.004-.17.012-.27s.02-.202.036-.306c-.04.088-.08.17-.12.246-.04.072-.08.136-.12.192-.008.008-.052.068-.132.18-.076.108-.178.248-.306.42-.124.172-.266.368-.426.588-.16.216-.322.438-.486.666-.388.532-.824 1.132-1.308 1.8-.048.076-.112.15-.192.222-.08.068-.17.102-.27.102h-.78zM406.65 368.88V375h-1.284v-2.778h-2.646V375h-1.29v-6.12h1.29v2.37h2.646v-2.37h1.284zM407.591 368.88h5.808v.972h-2.256V375h-1.29v-5.148h-2.262v-.972zM416.696 368.784c.376 0 .724.062 1.044.186.32.12.596.298.828.534.232.236.412.526.54.87.132.34.198.728.198 1.164 0 .2-.022.334-.066.402-.044.068-.124.102-.24.102h-3.93c.016.348.07.65.162.906.092.252.214.462.366.63.156.168.34.294.552.378.216.08.456.12.72.12.252 0 .47-.028.654-.084.184-.06.344-.124.48-.192.136-.072.252-.136.348-.192.096-.06.184-.09.264-.09.104 0 .184.04.24.12l.366.474c-.152.18-.324.332-.516.456s-.396.226-.612.306c-.216.076-.438.13-.666.162-.228.036-.45.054-.666.054-.424 0-.818-.07-1.182-.21-.36-.144-.674-.354-.942-.63-.264-.276-.472-.618-.624-1.026-.148-.408-.222-.878-.222-1.41 0-.424.066-.82.198-1.188.136-.368.328-.688.576-.96.252-.272.556-.486.912-.642.36-.16.766-.24 1.218-.24zm.024.936c-.468 0-.836.134-1.104.402-.268.268-.438.644-.51 1.128h3.042c0-.216-.032-.416-.096-.6-.06-.188-.15-.35-.27-.486-.12-.14-.27-.248-.45-.324-.176-.08-.38-.12-.612-.12zM420.509 377.034v-8.154h.78c.176 0 .288.082.336.246l.102.642c.128-.148.264-.284.408-.408.144-.124.298-.23.462-.318.168-.088.346-.156.534-.204.192-.048.396-.072.612-.072.344 0 .656.07.936.21.28.136.52.336.72.6.2.264.354.592.462.984.112.388.168.834.168 1.338 0 .452-.062.874-.186 1.266-.12.388-.294.726-.522 1.014-.228.284-.504.508-.828.672-.324.16-.69.24-1.098.24-.36 0-.666-.056-.918-.168-.252-.116-.478-.276-.678-.48v2.592h-1.29zm2.802-7.23c-.332 0-.616.072-.852.216-.236.14-.456.342-.66.606v2.838c.18.232.376.396.588.492.216.092.454.138.714.138.504 0 .896-.184 1.176-.552.284-.368.426-.916.426-1.644 0-.376-.032-.696-.096-.96-.064-.268-.156-.486-.276-.654-.12-.168-.266-.29-.438-.366-.172-.076-.366-.114-.582-.114zM432.502 368.88V375h-1.284v-2.778h-2.646V375h-1.29v-6.12h1.29v2.37h2.646v-2.37h1.284zM436.641 368.784c.376 0 .724.062 1.044.186.32.12.596.298.828.534.232.236.412.526.54.87.132.34.198.728.198 1.164 0 .2-.022.334-.066.402-.044.068-.124.102-.24.102h-3.93c.016.348.07.65.162.906.092.252.214.462.366.63.156.168.34.294.552.378.216.08.456.12.72.12.252 0 .47-.028.654-.084.184-.06.344-.124.48-.192.136-.072.252-.136.348-.192.096-.06.184-.09.264-.09.104 0 .184.04.24.12l.366.474c-.152.18-.324.332-.516.456s-.396.226-.612.306c-.216.076-.438.13-.666.162-.228.036-.45.054-.666.054-.424 0-.818-.07-1.182-.21-.36-.144-.674-.354-.942-.63-.264-.276-.472-.618-.624-1.026-.148-.408-.222-.878-.222-1.41 0-.424.066-.82.198-1.188.136-.368.328-.688.576-.96.252-.272.556-.486.912-.642.36-.16.766-.24 1.218-.24zm.024.936c-.468 0-.836.134-1.104.402-.268.268-.438.644-.51 1.128h3.042c0-.216-.032-.416-.096-.6-.06-.188-.15-.35-.27-.486-.12-.14-.27-.248-.45-.324-.176-.08-.38-.12-.612-.12zM439.712 368.88h5.808v.972h-2.256V375h-1.29v-5.148h-2.262v-.972zM446.194 370.842h3.042v1.092h-3.042v-1.092zM453.935 372c.056.104.106.216.15.336.048.12.094.24.138.36.044-.12.09-.24.138-.36.048-.12.1-.232.156-.336l1.638-2.844c.06-.12.134-.198.222-.234.088-.04.176-.06.264-.06h1.05V375h-1.158v-3.702c0-.128.008-.272.024-.432.016-.164.036-.316.06-.456l-1.95 3.504c-.04.072-.092.13-.156.174-.064.04-.136.06-.216.06h-.138c-.08 0-.152-.02-.216-.06-.06-.044-.11-.102-.15-.174l-1.986-3.516c.024.14.044.294.06.462.02.164.03.31.03.438V375h-1.164v-6.138h1.056c.088 0 .174.02.258.06.088.04.164.118.228.234l1.662 2.844zM463.222 375c-.124 0-.218-.018-.282-.054-.064-.04-.118-.118-.162-.234l-.126-.498c-.156.144-.31.27-.462.378-.152.108-.31.2-.474.276-.16.076-.334.132-.522.168-.184.04-.388.06-.612.06-.248 0-.48-.034-.696-.102-.212-.068-.396-.17-.552-.306-.156-.14-.28-.312-.372-.516-.088-.204-.132-.444-.132-.72 0-.236.062-.466.186-.69.128-.224.336-.424.624-.6.292-.18.674-.328 1.146-.444.476-.116 1.062-.182 1.758-.198v-.408c0-.44-.094-.768-.282-.984-.188-.216-.464-.324-.828-.324-.248 0-.456.032-.624.096-.168.06-.314.126-.438.198-.124.072-.234.14-.33.204-.096.06-.198.09-.306.09-.088 0-.164-.022-.228-.066a.629.629 0 01-.15-.174l-.234-.42c.692-.644 1.516-.966 2.472-.966.352 0 .664.058.936.174.276.112.506.272.69.48.188.208.33.456.426.744.1.284.15.6.15.948V375h-.576zm-2.25-.804c.336 0 .624-.062.864-.186.244-.128.48-.31.708-.546v-1.14c-.46.02-.848.058-1.164.114-.316.056-.572.13-.768.222-.196.092-.338.2-.426.324a.6848.6848 0 00-.126.402c0 .144.022.268.066.372.048.1.112.184.192.252.084.064.18.112.288.144.112.028.234.042.366.042zM469.371 368.88v.972h-2.772V375h-1.29v-6.12h4.062zM474.179 375c-.124 0-.218-.018-.282-.054-.064-.04-.118-.118-.162-.234l-.126-.498c-.156.144-.31.27-.462.378-.152.108-.31.2-.474.276-.16.076-.334.132-.522.168-.184.04-.388.06-.612.06-.248 0-.48-.034-.696-.102-.212-.068-.396-.17-.552-.306-.156-.14-.28-.312-.372-.516-.088-.204-.132-.444-.132-.72 0-.236.062-.466.186-.69.128-.224.336-.424.624-.6.292-.18.674-.328 1.146-.444.476-.116 1.062-.182 1.758-.198v-.408c0-.44-.094-.768-.282-.984-.188-.216-.464-.324-.828-.324-.248 0-.456.032-.624.096-.168.06-.314.126-.438.198-.124.072-.234.14-.33.204-.096.06-.198.09-.306.09-.088 0-.164-.022-.228-.066a.629.629 0 01-.15-.174l-.234-.42c.692-.644 1.516-.966 2.472-.966.352 0 .664.058.936.174.276.112.506.272.69.48.188.208.33.456.426.744.1.284.15.6.15.948V375h-.576zm-2.25-.804c.336 0 .624-.062.864-.186.244-.128.48-.31.708-.546v-1.14c-.46.02-.848.058-1.164.114-.316.056-.572.13-.768.222-.196.092-.338.2-.426.324a.6848.6848 0 00-.126.402c0 .144.022.268.066.372.048.1.112.184.192.252.084.064.18.112.288.144.112.028.234.042.366.042zM475.894 369.528c.232-.22.516-.398.852-.534.336-.14.738-.21 1.206-.21.376 0 .708.046.996.138.288.088.53.208.726.36.196.148.344.32.444.516.104.196.156.4.156.612 0 .12-.018.244-.054.372-.036.124-.096.246-.18.366-.08.12-.188.232-.324.336-.132.104-.296.19-.492.258.364.12.652.306.864.558.212.252.318.562.318.93 0 .292-.068.554-.204.786-.132.228-.31.422-.534.582-.22.16-.476.282-.768.366-.288.084-.588.126-.9.126-.188 0-.384-.018-.588-.054-.2-.032-.4-.086-.6-.162a3.147 3.147 0 01-.57-.306c-.184-.124-.35-.276-.498-.456l.372-.474c.048-.08.128-.12.24-.12.08 0 .162.03.246.09.084.06.182.126.294.198.116.072.254.138.414.198.164.06.366.09.606.09.2 0 .378-.024.534-.072.156-.048.288-.116.396-.204.108-.088.19-.19.246-.306.056-.12.084-.25.084-.39 0-.272-.112-.486-.336-.642-.22-.16-.568-.24-1.044-.24h-.69v-.852h.69c.416 0 .738-.076.966-.228.228-.152.342-.35.342-.594 0-.22-.1-.406-.3-.558-.196-.152-.492-.228-.888-.228-.224 0-.416.024-.576.072-.156.044-.288.094-.396.15-.108.052-.2.1-.276.144-.072.044-.136.066-.192.066-.06 0-.112-.012-.156-.036-.04-.024-.084-.074-.132-.15l-.294-.498zM481.657 375.006v-6.126h1.29v3.834c0 .088-.006.184-.018.288-.008.1-.02.202-.036.306.08-.184.162-.336.246-.456.004-.008.046-.066.126-.174.08-.108.182-.248.306-.42.128-.172.27-.366.426-.582.16-.22.322-.444.486-.672.388-.532.826-1.132 1.314-1.8.048-.08.112-.154.192-.222s.17-.102.27-.102h.78V375h-1.29v-3.834c0-.08.004-.17.012-.27s.02-.202.036-.306c-.04.088-.08.17-.12.246-.04.072-.08.136-.12.192-.008.008-.052.068-.132.18-.076.108-.178.248-.306.42-.124.172-.266.368-.426.588-.16.216-.322.438-.486.666-.388.532-.824 1.132-1.308 1.8-.048.076-.112.15-.192.222-.08.068-.17.102-.27.102h-.78zM493.826 368.88V375h-1.284v-2.778h-2.646V375h-1.29v-6.12h1.29v2.37h2.646v-2.37h1.284z"
          fill="#000"></path>
    <path d="M346 265l-5 2.887v-5.774l5 2.887zm-40.5-97v77h-1v-77h1zm19.5 96.5h16.5v1H325v-1zM305.5 245c0 10.77 8.73 19.5 19.5 19.5v1c-11.322 0-20.5-9.178-20.5-20.5h1zM232 265l5 2.887v-5.774L232 265zm40.5-97.5V245h1v-77.5h-1zm-19.5 97h-16.5v1H253v-1zm19.5-19.5c0 10.77-8.73 19.5-19.5 19.5v1c11.322 0 20.5-9.178 20.5-20.5h-1z"
          fill="#08A045"></path>
    <path d="M444.25 265.333h-28.5c-.42 0-.823.167-1.12.464-.296.297-.463.7-.463 1.12v22.166c0 .42.167.823.463 1.12.297.297.7.464 1.12.464h28.5c.42 0 .823-.167 1.12-.464.297-.297.463-.7.463-1.12v-22.166c0-.42-.166-.823-.463-1.12-.297-.297-.7-.464-1.12-.464zm-3.958 1.584c.156 0 .309.046.44.133.13.087.231.211.291.355.06.145.076.304.045.458a.7942.7942 0 01-.216.405.7948.7948 0 01-.406.217.7941.7941 0 01-.457-.045.7865.7865 0 01-.355-.292.7912.7912 0 01.098-1c.148-.148.35-.231.56-.231zm-3.167 0a.7885.7885 0 01.731.488c.06.145.076.304.046.458a.7958.7958 0 01-.217.405.7958.7958 0 01-.405.217.7975.7975 0 01-.458-.045.7918.7918 0 01-.355-.292.7912.7912 0 01-.134-.44c0-.21.084-.411.232-.56.149-.148.35-.231.56-.231zm7.125 22.166h-28.5v-19h28.5v19zm-.792-20.583a.7904.7904 0 01-.439-.134.7802.7802 0 01-.292-.355.7858.7858 0 01-.045-.457.7948.7948 0 01.217-.406c.11-.11.251-.186.405-.216a.785.785 0 01.457.045c.145.06.269.161.356.291a.795.795 0 01.133.44c0 .21-.083.412-.232.56a.7892.7892 0 01-.56.232z"
          fill="#5C6770"></path>
    <path d="M427.467 283.383a1.2677 1.2677 0 00-1.17.782 1.274 1.274 0 00-.073.732c.049.246.17.472.347.649.177.177.403.297.649.346.245.049.5.024.731-.072.232-.096.43-.258.569-.466.139-.209.213-.453.213-.704.001-.166-.032-.331-.096-.485a1.2394 1.2394 0 00-.274-.411 1.2682 1.2682 0 00-.411-.275 1.2826 1.2826 0 00-.485-.096zm-3.8-10.133v1.267h1.266l2.28 4.807-.855 1.551c-.104.186-.159.395-.158.608.001.336.135.658.372.895s.559.371.895.372h7.6v-1.267h-7.334a.1407.1407 0 01-.061-.011.1644.1644 0 01-.052-.035.158.158 0 01-.046-.112l.019-.076.57-1.032h4.719c.226 0 .448-.06.643-.175.195-.114.356-.279.465-.478l2.267-4.11a.61.61 0 00.076-.304c0-.168-.067-.329-.186-.447a.6295.6295 0 00-.447-.186h-9.367l-.595-1.267h-2.071zm10.133 10.133c-.25 0-.495.075-.704.214-.208.139-.37.337-.466.568-.096.232-.121.486-.072.732s.169.472.346.649c.178.177.403.297.649.346.246.049.5.024.732-.072.231-.096.429-.258.568-.466a1.27 1.27 0 00.214-.704c0-.166-.033-.331-.096-.485a1.2576 1.2576 0 00-.275-.411 1.2576 1.2576 0 00-.411-.275 1.2826 1.2826 0 00-.485-.096z"
          fill="#5C6770"></path>
</svg>