<svg class="w-100 h-auto" width="540" height="390" viewBox="0 0 540 390" fill="none" xmlns="http://www.w3.org/2000/svg">
    <g clip-path="url(#clip8456460)">
        <path fill="#fff" d="M0 0h540v390H0z"></path>
        <path d="M33.2078 134.928H231.23M253.396 147.888H78.5166M13.4 32h515.04M523.921 63.4465H286.604M274.76 63.4465H18.44"
              stroke="#C7CED1" stroke-miterlimit="10" stroke-linecap="round"></path>
        <path d="M75.2816 197.281h-2.8035v161.09h2.8035v-161.09z" fill="#C7CED1" stroke="#5C6770" stroke-width=".8615"
              stroke-miterlimit="10"></path>
        <path d="M226.538 215.535h-18.983v1.644h18.983v-1.644zM226.538 274.956h-18.983v1.644h18.983v-1.644zM226.538 334.01h-18.983v1.644h18.983v-1.644z"
              fill="#5C6770"></path>
        <path d="M105.547 298.303h-7.6517v35.556h7.6517v-35.556z" fill="#C7CED1" stroke="#5C6770" stroke-width=".8615"
              stroke-miterlimit="10"></path>
        <path d="M97.8954 298.303H62.3395v35.556h35.5559v-35.556z" fill="#F1F5F7" stroke="#5C6770" stroke-width=".8615"
              stroke-miterlimit="10"></path>
        <path d="M83.9431 310.906l-3.8257-2.421-3.3755 2.421v-12.603h7.2012v12.603zM93.1507 330.466h-8.2076c-.5523 0-1-.448-1-1v-4.805c0-.553.4477-1 1-1h8.2076c.5523 0 1 .447 1 1v4.805c0 .552-.4477 1-1 1zM147.934 285.098h-7.651v48.761h7.651v-48.761z"
              fill="#C7CED1" stroke="#5C6770" stroke-width=".8615" stroke-miterlimit="10"></path>
        <path d="M140.283 285.098h-35.556v48.761h35.556v-48.761z" fill="#F1F5F7" stroke="#5C6770" stroke-width=".8615"
              stroke-miterlimit="10"></path>
        <path d="M126.331 297.7l-3.826-2.42-3.376 2.42v-12.602h7.202V297.7zM135.538 330.466h-8.207c-.553 0-1-.448-1-1v-4.805c0-.553.447-1 1-1h8.207c.552 0 1 .447 1 1v4.805c0 .552-.448 1-1 1zM220.391 285.098h-7.652v48.761h7.652v-48.761z"
              fill="#C7CED1" stroke="#5C6770" stroke-width=".8615" stroke-miterlimit="10"></path>
        <path d="M212.739 285.098h-35.555v48.761h35.555v-48.761z" fill="#F1F5F7" stroke="#5C6770" stroke-width=".8615"
              stroke-miterlimit="10"></path>
        <path d="M198.787 297.7l-3.826-2.42-3.375 2.42v-12.602h7.201V297.7zM207.995 330.466h-8.208c-.552 0-1-.448-1-1v-4.805c0-.553.448-1 1-1h8.208c.552 0 1 .447 1 1v4.805c0 .552-.448 1-1 1z"
              fill="#C7CED1" stroke="#5C6770" stroke-width=".8615" stroke-miterlimit="10"></path>
        <path d="M223.735 215.059H58.9957v.952H223.735v-.952z" fill="#5C6770"></path>
        <path d="M207.555 215.101H58.9957v3.722H207.555v-3.722z" fill="#F1F5F7" stroke="#5C6770" stroke-width="1.0049"
              stroke-miterlimit="10"></path>
        <path d="M226.538 197.281h-2.803v161.09h2.803v-161.09zM101.894 179.503h-7.6518v35.556h7.6518v-35.556z"
              fill="#C7CED1" stroke="#5C6770" stroke-width=".8615" stroke-miterlimit="10"></path>
        <path d="M94.2422 179.503H58.6864v35.556h35.5558v-35.556z" fill="#F1F5F7" stroke="#5C6770" stroke-width=".8615"
              stroke-miterlimit="10"></path>
        <path d="M80.2899 192.105l-3.8256-2.42-3.3756 2.42v-12.602h7.2012v12.602zM89.4976 211.666h-8.2077c-.5523 0-1-.448-1-1v-4.805c0-.553.4477-1 1-1h8.2077c.5523 0 1 .447 1 1v4.805c0 .552-.4477 1-1 1zM141.281 179.503h-7.651v35.556h7.651v-35.556z"
              fill="#C7CED1" stroke="#5C6770" stroke-width=".8615" stroke-miterlimit="10"></path>
        <path d="M133.63 179.503H98.0739v35.556H133.63v-35.556z" fill="#F1F5F7" stroke="#5C6770" stroke-width=".8615"
              stroke-miterlimit="10"></path>
        <path d="M119.677 192.105l-3.825-2.42-3.376 2.42v-12.602h7.201v12.602zM128.885 211.666h-8.208c-.552 0-1-.448-1-1v-4.805c0-.553.448-1 1-1h8.208c.552 0 1 .447 1 1v4.805c0 .552-.448 1-1 1zM180.662 166.298h-7.651v48.761h7.651v-48.761z"
              fill="#C7CED1" stroke="#5C6770" stroke-width=".8615" stroke-miterlimit="10"></path>
        <path d="M173.011 166.298h-35.556v48.761h35.556v-48.761z" fill="#F1F5F7" stroke="#5C6770" stroke-width=".8615"
              stroke-miterlimit="10"></path>
        <path d="M159.059 178.9l-3.826-2.42-3.375 2.42v-12.602h7.201V178.9zM168.267 211.666h-8.208c-.552 0-1-.448-1-1v-4.805c0-.553.448-1 1-1h8.208c.552 0 1 .447 1 1v4.805c0 .552-.448 1-1 1zM220.044 179.503h-7.651v35.556h7.651v-35.556z"
              fill="#C7CED1" stroke="#5C6770" stroke-width=".8615" stroke-miterlimit="10"></path>
        <path d="M212.393 179.503h-35.556v35.556h35.556v-35.556z" fill="#F1F5F7" stroke="#5C6770" stroke-width=".8615"
              stroke-miterlimit="10"></path>
        <path d="M198.44 192.105l-3.825-2.42-3.376 2.42v-12.602h7.201v12.602zM207.648 211.666h-8.208c-.552 0-1-.448-1-1v-4.805c0-.553.448-1 1-1h8.208c.552 0 1 .447 1 1v4.805c0 .552-.448 1-1 1zM112.879 238.903h-7.651v35.556h7.651v-35.556z"
              fill="#C7CED1" stroke="#5C6770" stroke-width=".8615" stroke-miterlimit="10"></path>
        <path d="M105.228 238.903H69.6724v35.556h35.5556v-35.556z" fill="#F1F5F7" stroke="#5C6770" stroke-width=".8615"
              stroke-miterlimit="10"></path>
        <path d="M91.2759 251.505l-3.8256-2.42-3.3756 2.42v-12.602h7.2012v12.602zM100.484 271.066h-8.2081c-.5523 0-1-.448-1-1v-4.806c0-.552.4477-1 1-1h8.2081c.552 0 1 .448 1 1v4.806c0 .552-.448 1-1 1z"
              fill="#C7CED1" stroke="#5C6770" stroke-width=".8615" stroke-miterlimit="10"></path>
        <path d="M169.851 234.051H162.2v40.408h7.651v-40.408z" fill="#C7CED1" stroke="#5C6770" stroke-width=".9184"
              stroke-miterlimit="10"></path>
        <path d="M162.2 234.051h-50.309v40.408H162.2v-40.408z" fill="#F1F5F7" stroke="#5C6770" stroke-width="1.0924"
              stroke-miterlimit="10"></path>
        <path d="M140.646 246.653l-3.826-2.421-3.375 2.421v-12.602h7.201v12.602zM157.455 271.066h-8.208c-.552 0-1-.448-1-1v-4.806c0-.552.448-1 1-1h8.208c.552 0 1 .448 1 1v4.806c0 .552-.448 1-1 1zM213.058 238.903h-7.652v35.556h7.652v-35.556z"
              fill="#C7CED1" stroke="#5C6770" stroke-width=".8615" stroke-miterlimit="10"></path>
        <path d="M205.407 238.903h-35.556v35.556h35.556v-35.556z" fill="#F1F5F7" stroke="#5C6770" stroke-width=".8615"
              stroke-miterlimit="10"></path>
        <path d="M191.454 251.505l-3.825-2.42-3.376 2.42v-12.602h7.201v12.602zM200.662 271.066h-8.208c-.552 0-1-.448-1-1v-4.806c0-.552.448-1 1-1h8.208c.552 0 1 .448 1 1v4.806c0 .552-.448 1-1 1z"
              fill="#C7CED1" stroke="#5C6770" stroke-width=".8615" stroke-miterlimit="10"></path>
        <path d="M223.735 274.48H58.9957v.952H223.735v-.952z" fill="#5C6770"></path>
        <path d="M207.555 274.522H58.9957v3.722H207.555v-3.722z" fill="#F1F5F7" stroke="#5C6770" stroke-width="1.0049"
              stroke-miterlimit="10"></path>
        <path d="M223.735 333.88H58.9957v.952H223.735v-.952z" fill="#5C6770"></path>
        <path d="M207.555 333.922H58.9957v3.722H207.555v-3.722z" fill="#F1F5F7" stroke="#5C6770" stroke-width="1.0049"
              stroke-miterlimit="10"></path>
        <path d="M208.957 197.281h-2.803v161.09h2.803v-161.09zM60.2655 197.281h-2.8036v161.09h2.8036v-161.09z"
              fill="#F1F5F7" stroke="#5C6770" stroke-width="1.0997" stroke-miterlimit="10"></path>
        <path d="M94.9042 358.371H50.16M41.5201 358.371h-18.441M168.74 358.371h46.619M221.005 358.371h20.72"
              stroke="#5C6770" stroke-width=".8615" stroke-miterlimit="10"></path>
        <path d="M478.979 274.794h-18.982v1.644h18.982v-1.644zM478.979 333.848h-18.982v1.644h18.982v-1.644z"
              fill="#5C6770"></path>
        <path d="M327.723 256.519h-2.804v101.689h2.804V256.519zM478.979 256.519h-2.803v101.689h2.803V256.519z"
              fill="#C7CED1" stroke="#5C6770" stroke-width=".8615" stroke-miterlimit="10"></path>
        <path d="M386.924 238.741h-7.651v35.556h7.651v-35.556z" fill="#0B6E4F" stroke="#073B3A"
              stroke-miterlimit="10"></path>
        <path d="M379.273 238.741h-35.556v35.556h35.556v-35.556z" fill="#08A045" stroke="#073B3A"
              stroke-miterlimit="10"></path>
        <path d="M365.321 251.343l-3.826-2.42-3.376 2.42v-12.602h7.202v12.602zM374.528 270.904h-8.207c-.553 0-1-.448-1-1v-4.806c0-.552.447-1 1-1h8.207c.553 0 1 .448 1 1v4.806c0 .552-.447 1-1 1z"
              fill="#0B6E4F" stroke="#073B3A" stroke-miterlimit="10"></path>
        <path d="M443.896 233.888h-7.652v40.409h7.652v-40.409z" fill="#C7CED1" stroke="#5C6770" stroke-width=".9184"
              stroke-miterlimit="10"></path>
        <path d="M436.244 233.888h-50.308v40.409h50.308v-40.409z" fill="#F1F5F7" stroke="#5C6770" stroke-width="1.0924"
              stroke-miterlimit="10"></path>
        <path d="M414.691 246.49l-3.826-2.42-3.375 2.42v-12.602h7.201v12.602zM431.5 270.904h-8.208c-.552 0-1-.448-1-1v-4.806c0-.552.448-1 1-1h8.208c.552 0 1 .448 1 1v4.806c0 .552-.448 1-1 1z"
              fill="#C7CED1" stroke="#5C6770" stroke-width=".8615" stroke-miterlimit="10"></path>
        <path d="M476.176 274.318H311.437v.952h164.739v-.952z" fill="#5C6770"></path>
        <path d="M459.997 274.36h-148.56v3.722h148.56v-3.722z" fill="#F1F5F7" stroke="#5C6770" stroke-width="1.0049"
              stroke-miterlimit="10"></path>
        <path d="M394.513 298.141h-7.652v35.556h7.652v-35.556z" fill="#C7CED1" stroke="#5C6770" stroke-width=".8615"
              stroke-miterlimit="10"></path>
        <path d="M386.861 298.141h-35.555v35.556h35.555v-35.556z" fill="#F1F5F7" stroke="#5C6770" stroke-width=".8615"
              stroke-miterlimit="10"></path>
        <path d="M372.909 310.743l-3.826-2.421-3.375 2.421v-12.602h7.201v12.602zM382.117 330.303h-8.208c-.552 0-1-.447-1-1v-4.805c0-.552.448-1 1-1h8.208c.552 0 1 .448 1 1v4.805c0 .553-.448 1-1 1z"
              fill="#C7CED1" stroke="#5C6770" stroke-width=".8615" stroke-miterlimit="10"></path>
        <path d="M436.307 284.936h-7.651v48.761h7.651v-48.761z" fill="#0B6E4F" stroke="#073B3A"
              stroke-miterlimit="10"></path>
        <path d="M428.656 284.936H393.1v48.761h35.556v-48.761z" fill="#08A045" stroke="#073B3A"
              stroke-miterlimit="10"></path>
        <path d="M414.703 297.538l-3.825-2.421-3.376 2.421v-12.602h7.201v12.602zM423.911 330.303h-8.208c-.552 0-1-.447-1-1v-4.805c0-.552.448-1 1-1h8.208c.552 0 1 .448 1 1v4.805c0 .553-.448 1-1 1z"
              fill="#0B6E4F" stroke="#073B3A" stroke-miterlimit="10"></path>
        <path d="M476.176 333.718H311.437v.951h164.739v-.951z" fill="#5C6770"></path>
        <path d="M459.997 333.76h-148.56v3.722h148.56v-3.722z" fill="#F1F5F7" stroke="#5C6770" stroke-width="1.0049"
              stroke-miterlimit="10"></path>
        <path d="M461.398 256.519h-2.803v101.689h2.803V256.519zM312.707 256.519h-2.804v101.689h2.804V256.519z"
              fill="#F1F5F7" stroke="#5C6770" stroke-width=".8737" stroke-miterlimit="10"></path>
        <path d="M335.841 358.208h-39.888M287.953 358.208h-16M438.089 358.208h46.619M492.642 358.208h20.72"
              stroke="#5C6770" stroke-width=".8615" stroke-miterlimit="10"></path>
        <path d="M253.396 63.4507V285.965M286.604 63.4507V305.825M506.792 63.4507V302.422M540 96.6558V306.526M0 96.6558V319.17M33.2078 63.4507V316.406M385.293 109.008H309.77c-.552 0-1-.447-1-1V81.2085c0-.5523.448-1 1-1h75.523c.552 0 1 .4477 1 1v26.7995c0 .553-.448 1-1 1z"
              stroke="#C7CED1" stroke-miterlimit="10" stroke-linecap="round"></path>
        <path d="M363.15 105.318h-49c-.55 0-1-.45-1-1V84.8984c0-.55.45-1 1-1h30.15l18.85 21.4196z"
              fill="#F1F5F7"></path>
        <path d="M380.911 105.319h-66.76c-.552 0-1-.448-1-1V84.8979c0-.5522.448-1 1-1h66.76c.553 0 1 .4478 1 1v19.4211c0 .552-.447 1-1 1zM506.792 134.928H308.77M286.604 147.888h174.879M483.626 109.008h-75.522c-.553 0-1-.447-1-1V81.2085c0-.5523.447-1 1-1h75.522c.552 0 1 .4477 1 1v26.7995c0 .553-.448 1-1 1z"
              stroke="#C7CED1" stroke-miterlimit="10" stroke-linecap="round"></path>
        <path d="M461.483 105.318h-49c-.55 0-1-.45-1-1V84.8984c0-.55.45-1 1-1h30.15l18.85 21.4196z"
              fill="#F1F5F7"></path>
        <path d="M479.245 105.319h-66.76c-.553 0-1-.448-1-1V84.8979c0-.5522.447-1 1-1h66.76c.552 0 1 .4478 1 1v19.4211c0 .552-.448 1-1 1zM131.896 109.008H56.3741c-.5523 0-1-.447-1-1V81.2085c0-.5523.4477-1 1-1h75.5219c.553 0 1 .4477 1 1v26.7995c0 .553-.447 1-1 1z"
              stroke="#C7CED1" stroke-miterlimit="10" stroke-linecap="round"></path>
        <path d="M109.754 105.318H60.7539c-.55 0-1-.45-1-1V84.8984c0-.55.45-1 1-1h30.15l18.8501 21.4196z"
              fill="#F1F5F7"></path>
        <path d="M127.515 105.319H60.7552c-.5522 0-1-.448-1-1V84.8979c0-.5522.4478-1 1-1h66.7598c.553 0 1 .4478 1 1v19.4211c0 .552-.447 1-1 1zM230.23 109.008h-75.522c-.553 0-1-.447-1-1V81.2085c0-.5523.447-1 1-1h75.522c.552 0 1 .4477 1 1v26.7995c0 .553-.448 1-1 1z"
              stroke="#C7CED1" stroke-miterlimit="10" stroke-linecap="round"></path>
        <path d="M208.087 105.318h-49c-.55 0-1-.45-1-1V84.8984c0-.55.45-1 1-1h30.15l18.85 21.4196z"
              fill="#F1F5F7"></path>
        <path d="M225.849 105.319h-66.76c-.553 0-1-.448-1-1V84.8979c0-.5522.447-1 1-1h66.76c.552 0 1 .4478 1 1v19.4211c0 .552-.448 1-1 1z"
              stroke="#C7CED1" stroke-miterlimit="10" stroke-linecap="round"></path>
    </g>
    <defs>
        <clipPath id="clip8456460">
            <path fill="#fff" d="M0 0h540v390H0z"></path>
        </clipPath>
    </defs>
</svg>