<svg xmlns="http://www.w3.org/2000/svg" width="180" height="50" fill="none" viewBox="0 0 180 50">
    <defs></defs>
    <path fill="#fff" fill-rule="evenodd"
          d="M29.328 6.918a16.946 16.946 0 00-10.373 2.214c-3.154 1.833-5.685 4.637-7.244 8.026a18.824 18.824 0 00-1.462 10.9c.608 3.702 2.304 7.118 4.856 9.779 2.552 2.66 5.834 4.433 9.395 5.076 3.561.644 7.227.125 10.493-1.485s5.971-4.231 7.746-7.504A18.778 18.778 0 0044.9 23.151c-.404-4.153-2.173-8.035-5.01-10.992-2.836-2.957-6.566-4.808-10.562-5.24zm-.567 27.704a9.03 9.03 0 01-5.621-1.049 9.538 9.538 0 01-3.98-4.256 10.037 10.037 0 01-.85-5.87 9.837 9.837 0 012.601-5.284 9.216 9.216 0 015.077-2.72 9.02 9.02 0 015.65.864 9.504 9.504 0 014.109 4.123 10.025 10.025 0 011.027 5.84 9.846 9.846 0 01-2.644 5.587 9.2 9.2 0 01-5.369 2.765zM54.258 7.638a3.955 3.955 0 00-1.753.415 4.112 4.112 0 00-1.41 1.159 4.31 4.31 0 00-.796 1.676 4.405 4.405 0 00-.025 1.868c.384 1.999 2.18 3.365 4.137 3.365H65.77L48.094 40.429a1.252 1.252 0 00-.115 1.269c.096.202.244.371.428.49.183.12.395.183.612.184h27.725c1.956 0 3.754-1.365 4.138-3.365a4.406 4.406 0 00-.025-1.868 4.31 4.31 0 00-.795-1.676 4.11 4.11 0 00-1.41-1.158 3.955 3.955 0 00-1.753-.417H63.061l17.661-24.29a1.264 1.264 0 00.116-1.281 1.208 1.208 0 00-.432-.495c-.185-.12-.4-.184-.618-.184h-25.53zm110.789.097a4.131 4.131 0 00-2.313 1.547 4.424 4.424 0 00-.872 2.71v14.125L139.84 7.904a1.132 1.132 0 00-1.239-.142c-.199.1-.366.256-.483.45a1.257 1.257 0 00-.178.649v29.163c-.015.98.293 1.937.872 2.711a4.131 4.131 0 002.313 1.547 3.928 3.928 0 001.808-.013 4.022 4.022 0 001.625-.825 4.218 4.218 0 001.122-1.473 4.376 4.376 0 00.398-1.833V23.89l22.023 18.213a1.134 1.134 0 001.239.142c.198-.1.365-.256.482-.45.117-.194.179-.419.178-.648v-29.27a4.374 4.374 0 00-.399-1.832 4.217 4.217 0 00-1.122-1.473 4.013 4.013 0 00-1.624-.824 3.929 3.929 0 00-1.808-.014zm-57.341 7.574c9.315 0 16.275 5.115 16.275 9.691 0 4.576-6.96 9.692-16.275 9.692-9.315 0-16.275-5.116-16.275-9.692 0-4.576 6.96-9.691 16.275-9.691zm0-8.483c-13.483 0-24.413 8.137-24.413 18.175 0 10.037 10.93 18.174 24.413 18.174s24.412-8.137 24.412-18.174c0-10.038-10.929-18.175-24.412-18.175z"
          clip-rule="evenodd"></path>
</svg>