<svg width="24" height="24" viewBox="0 0 24 24" fill="none" xmlns="http://www.w3.org/2000/svg">
    <path d="M13 16H11V18H13V16Z" fill="#A5AFB4"></path>
    <path d="M12 6C11.4747 5.99986 10.9545 6.10322 10.4691 6.30419C9.98373 6.50516 9.54271 6.79979 9.17125 7.17125C8.79979 7.54271 8.50516 7.98373 8.30419 8.4691C8.10322 8.95446 7.99986 9.47467 8 10H10C10 9.46957 10.2107 8.96086 10.5858 8.58579C10.9609 8.21071 11.4696 8 12 8C12.5304 8 13.0391 8.21071 13.4142 8.58579C13.7893 8.96086 14 9.46957 14 10C14 12 11 11.75 11 15H13C13 12.75 16 12.5 16 10C16.0001 9.47467 15.8968 8.95446 15.6958 8.4691C15.4948 7.98373 15.2002 7.54271 14.8287 7.17125C14.4573 6.79979 14.0163 6.50516 13.5309 6.30419C13.0455 6.10322 12.5253 5.99986 12 6Z"
          fill="#A5AFB4"></path>
    <path d="M12 3C13.78 3 15.5201 3.52784 17.0001 4.51677C18.4802 5.50571 19.6337 6.91131 20.3149 8.55585C20.9961 10.2004 21.1743 12.01 20.8271 13.7558C20.4798 15.5016 19.6226 17.1053 18.364 18.364C17.1053 19.6226 15.5016 20.4798 13.7558 20.8271C12.01 21.1743 10.2004 20.9961 8.55585 20.3149C6.91132 19.6337 5.50571 18.4802 4.51678 17.0001C3.52785 15.5201 3 13.78 3 12C3.0027 9.61388 3.95178 7.32626 5.63902 5.63902C7.32627 3.95177 9.61388 3.0027 12 3ZM12 2C10.0222 2 8.08879 2.58649 6.4443 3.6853C4.79981 4.78412 3.51809 6.3459 2.76121 8.17317C2.00433 10.0004 1.8063 12.0111 2.19215 13.9509C2.578 15.8907 3.53041 17.6725 4.92894 19.0711C6.32746 20.4696 8.10929 21.422 10.0491 21.8079C11.9889 22.1937 13.9996 21.9957 15.8268 21.2388C17.6541 20.4819 19.2159 19.2002 20.3147 17.5557C21.4135 15.9112 22 13.9778 22 12C22 10.6868 21.7413 9.38642 21.2388 8.17317C20.7363 6.95991 19.9997 5.85752 19.0711 4.92893C18.1425 4.00035 17.0401 3.26375 15.8268 2.7612C14.6136 2.25866 13.3132 2 12 2Z"
          fill="#A5AFB4"></path>
</svg>