<svg xmlns="http://www.w3.org/2000/svg" width="180" height="50" fill="none" viewBox="0 0 180 41">
    <defs></defs>
    <path fill="#fff"
          d="M12.1381 2.79727l.0211.00003c.149.00043.297.00535.4449.01257l.0001-.00148c1.7143.08384 3.3753.64093 4.7966 1.6138l2.3605-1.73573C17.6808 1.00684 15.105.0653399 12.4374.00415932 10.8466-.0375368 9.26211.234582 7.77481.806069 6.27133 1.38376 4.89892 2.25514 3.73733 3.36843c-1.1387 1.08622-2.05474 2.38562-2.69528 3.82552C.39453 8.6495.0421131 10.218.00405765 11.8086-.0371716 13.3972.236113 14.9794.809264 16.4637 1.4191 18.043 2.35477 19.4761 3.55533 20.6698l.00149-.0015c1.05399 1.0534 2.2945 1.9046 3.66019 2.5094 1.48129.6559 3.07829 1.008 4.69659 1.0361 1.5661.0316 3.1247-.2409 4.5891-.8036 1.5829-.6082 3.0204-1.5419 4.2196-2.7407 1.0545-1.0493 1.9069-2.286 2.5128-3.6484.6879-1.5468 1.0425-3.2212 1.0407-4.9142 0-.7406-.0668-1.4649-.1952-2.16903l-2.6112 1.91963.0038.2481c0 2.7334-1.1878 5.1959-3.0734 6.9014l.0017.0018c-.7921.7168-1.7023 1.2929-2.6915 1.7021-1.132.4683-2.3452.709-3.5703.7081-.1421.0001-.2841-.004-.4258-.0104l-.0405-.0022c-1.1437-.0563-2.26852-.3232-3.31775-.7884-1.19153-.5283-2.25906-1.3006-3.13364-2.267l-.00299.0027c-.7171-.7884-1.29382-1.6953-1.70376-2.6815-.46955-1.1295-.71106-2.3407-.71067-3.5639 0-.1122.00193-.2237.00583-.335.09262-2.59899 1.25931-4.93081 3.06873-6.56508l-.00128-.00142c.79135-.71639 1.70086-1.29224 2.6893-1.70135 1.13214-.4686 2.34563-.70925 3.57093-.70818z"></path>
    <path fill="#fff"
          d="M23.1985 7.11018c-.3901-.85559-.8783-1.66295-1.4548-2.40583l-9.6044 7.06135-4.62026-2.88956v3.47646l4.62026 2.8896 11.0592-8.13202zM69.7397 7.10762l3.2435-2.38442h-10.849v14.3116h10.849v-2.3807h-7.7541v-3.6654h6.6141v-2.3844h-6.6141V7.10762h4.5106z"></path>
    <path fill="#fff" fill-rule="evenodd"
          d="M53.9418 10.3045h-3.7675V7.10636h6.0159l3.2435-2.38442h-12.358V19.0335h6.4656c3.6263 0 5.7047-1.6375 5.7047-4.4968 0-2.7295-1.8844-4.2347-5.3042-4.2347v.0025zm-3.7662 6.3496v-3.9665h3.2284c1.9649 0 2.8794.6639 2.8794 1.9852 0 1.3465-.9699 1.9813-2.8794 1.9813h-3.2284zM81.7726 4.7232h-5.9062v14.3116h3.0948v-4.0547h2.8114c3.7713 0 6.1116-1.9775 6.1116-5.13537 0-3.15781-2.3428-5.12153-6.1116-5.12153zm-.0667 7.8763h-2.7447V7.10762h2.7447c1.9826 0 3.0772.97493 3.0772 2.74719 0 1.76969-1.0946 2.74589-3.0772 2.74589v-.0012z"
          clip-rule="evenodd"></path>
    <path fill="#fff"
          d="M41.7615 15.9362c-.7936.4383-1.7169.6675-2.6729.6675-2.79 0-4.8192-1.9889-4.8192-4.726 0-2.73708 2.0254-4.72599 4.8192-4.72599 1.0556 0 2.004.29727 2.8152.88046l2.2207-1.63244-.1461-.12596c-1.2961-1.13868-3.0268-1.73825-5.0095-1.73825-2.1501 0-4.1012.72301-5.4918 2.03426-1.3982 1.32006-2.1716 3.17796-2.1716 5.23112 0 2.062.7684 3.9451 2.164 5.3079 1.3982 1.3642 3.3455 2.1162 5.478 2.1162 2.2295 0 4.1819-.7772 5.502-2.1905-1.0203-.7482-2.0028-1.4724-2.0028-1.4724l-.684.3741h-.0012zM40.6127 36.9463l4.6101-7.6005V40.094h2.5595V25.795h-3.0306l-4.7096 7.7818-4.7512-7.7818h-3.2372v14.299h2.5608V29.4517l4.7083 7.4946h1.2899zM53.8624 33.9006h6.5928v-2.3492h-6.5928v-3.4122h7.351v-2.3479h-9.9118V40.089h10.1386v-2.3492h-7.5778v-3.8392zM66.8413 28.1404h7.1672l.0012-.0012v-2.3479h-9.7266V40.089h2.5582V28.1404z"></path>
    <path fill="#fff" fill-rule="evenodd"
          d="M84.4518 40.089h2.7232l-.0012-.0013-5.8949-14.2964h-2.9072L72.5574 40.089h2.5998l1.3516-3.3909h6.5725l1.3705 3.3909zm-4.6706-11.6035l2.3554 5.8635h-4.7108l2.3554-5.8635z"
          clip-rule="evenodd"></path>
    <path fill="#fff"
          d="M101.983 36.945l4.61-7.6004v10.7469h2.561V25.795h-3.032l-4.708 7.7806-4.7516-7.7806h-3.2372v14.2965h2.5595V29.4504l4.7093 7.4946h1.289z"></path>
    <path fill="#fff" fill-rule="evenodd"
          d="M122.854 40.089h2.721l.001-.0013-5.898-14.2964h-2.907l-5.815 14.2977h2.599l1.353-3.3909h6.571l1.375 3.3909zm-4.668-11.6035l2.355 5.8635h-4.71l2.355-5.8635zM129.96 40.094v-4.4552h2.209c2.118 0 3.721-.4169 4.812-1.247 1.094-.8301 1.64-2.0834 1.64-3.7586 0-1.6035-.51-2.8152-1.527-3.6239-1.016-.8087-2.659-1.2143-4.925-1.2143h-4.77v14.299h2.561zm0-6.8081v-5.1467h2.436c1.257 0 2.163.1839 2.723.5517.559.3678.839.9963.839 1.8793 0 .9812-.297 1.6778-.899 2.0947-.599.4131-1.502.621-2.702.621h-2.397z"
          clip-rule="evenodd"></path>
    <path fill="#fff"
          d="M141.238 40.089h2.56v-6.1884h2.273l5.201 6.1871h3.276l-6.349-7.4946 5.468-6.8018h-3.113l-4.607 6.0045h-2.149v-6.0045h-2.56V40.089zM158.933 33.9006h6.593v-2.3492h-6.593v-3.4122h7.351v-2.3479h-9.912V40.089h10.139v-2.3492h-7.578v-3.8392zM175.167 28.1404H180v-.0012h-.004v-2.3479h-12.141v2.3479h4.751V40.089h2.561V28.1404z"></path>
</svg>