<svg xmlns="http://www.w3.org/2000/svg" width="350" height="200" style="width: 100%;max-width: 300px;" fill="none"
     viewBox="0 0 350 200">
    <path d="M142.459 166.698H45.434M38.304 166.698H15" stroke="#5C6770" stroke-width=".861"
          stroke-miterlimit="10"></path>
    <path fill-rule="evenodd" clip-rule="evenodd" d="M130.521 166.698H60.895V74.784a2 2 0 012-2h67.626v93.914z"
          fill="#E8E8E8" stroke="#5C6770" stroke-miterlimit="10"></path>
    <path fill-rule="evenodd" clip-rule="evenodd"
          d="M130.521 166.698h7.675V74.784a2 2 0 00-2-2h-5.675v93.914zM81.945 101.93l-6.477-6.854-6.477 6.854V72.784h12.954v29.146z"
          fill="#C7CED1" stroke="#5C6770" stroke-width=".861" stroke-miterlimit="10"></path>
    <path d="M193.252 156.683l-2.084 21.227c-.168.812-.891 1.546-1.996 2.028l-6.517 2.758v.24h59.519v-.24l-7.09-3.15c-1.084-.496-1.777-1.237-1.917-2.048l-1.59-20.815h-38.325zM310.354 135.752H114.477V20.064a3 3 0 013-3h189.877a3 3 0 013 3v115.688z"
          fill="#E8E8E8" stroke="#5C6770" stroke-miterlimit="10"></path>
    <path d="M305.114 23.994H119.717v104.828h185.397V23.994z" fill="#fff" stroke="#5C6770" stroke-width=".5"
          stroke-miterlimit="10"></path>
    <path d="M307.354 156.683H117.477a3 3 0 01-3-3v-17.931h195.877v17.931a3 3 0 01-3 3z" fill="#C7CED1" stroke="#5C6770"
          stroke-miterlimit="10"></path>
    <path d="M288.126 72.784H136.704a2 2 0 01-2-2V32.337a2 2 0 012-2h151.422a2 2 0 012 2v38.447a2 2 0 01-2 2zM262.319 97.56h-17.041a2 2 0 01-2-2V78.52a2 2 0 012-2h17.041a2 2 0 012 2v17.04a2 2 0 01-2 2z"
          fill="#E8E8E8"></path>
    <path d="M288.575 79.72h-20.099c-.55 0-1-.45-1-1v-1.2c0-.55.45-1 1-1h20.099c.55 0 1 .45 1 1v1.2c0 .55-.45 1-1 1zM278.623 85.048h-10.147c-.55 0-1-.45-1-1v-1.2c0-.55.45-1 1-1h10.147c.55 0 1 .45 1 1v1.2c0 .55-.45 1-1 1zM281.757 97.56h-13.281c-.55 0-1-.45-1-1v-1.2c0-.55.45-1 1-1h13.281c.55 0 1 .45 1 1v1.2c0 .55-.45 1-1 1z"
          fill="#C7CED1"></path>
    <path d="M262.319 122.48h-17.041a2 2 0 01-2-2v-17.04a2 2 0 012-2h17.041a2 2 0 012 2v17.04a2 2 0 01-2 2z"
          fill="#E8E8E8"></path>
    <path d="M288.575 104.639h-20.099c-.55 0-1-.45-1-1v-1.199c0-.55.45-1 1-1h20.099c.55 0 1 .45 1 1v1.199c0 .55-.45 1-1 1zM278.623 109.968h-10.147c-.55 0-1-.45-1-1v-1.2c0-.55.45-1 1-1h10.147c.55 0 1 .45 1 1v1.2c0 .55-.45 1-1 1zM281.757 122.48h-13.281c-.55 0-1-.45-1-1v-1.2c0-.55.45-1 1-1h13.281c.55 0 1 .45 1 1v1.2c0 .55-.45 1-1 1z"
          fill="#C7CED1"></path>
    <path d="M238.033 122.48H135.704c-.55 0-1-.45-1-1V77.52c0-.55.45-1 1-1h102.329c.55 0 1 .45 1 1v43.96c0 .55-.45 1-1 1z"
          fill="#E8E8E8"></path>
    <path d="M130.623 23.994h-10.906v20.42h10.906v-20.42z" fill="#08A045"></path>
    <path d="M130.623 44.414h-10.906v3.376a5.453 5.453 0 0010.906 0v-3.376z" fill="#0B6E4F"></path>
    <path d="M141.528 44.414h-10.905v3.376a5.452 5.452 0 1010.905 0v-3.376z" fill="#08A045"></path>
    <path d="M305.114 44.414h-10.906v3.376a5.453 5.453 0 0010.906 0v-3.376zM283.302 44.414h-10.905v3.376a5.453 5.453 0 1010.905 0v-3.376z"
          fill="#0B6E4F"></path>
    <path d="M294.208 44.414h-10.906v3.376a5.453 5.453 0 0010.906 0v-3.376z" fill="#08A045"></path>
    <path d="M261.491 44.414h-10.906v3.376a5.453 5.453 0 1010.906 0v-3.376z" fill="#0B6E4F"></path>
    <path d="M272.397 44.414h-10.906v3.376a5.453 5.453 0 1010.906 0v-3.376z" fill="#08A045"></path>
    <path d="M239.68 44.414h-10.906v3.376a5.453 5.453 0 0010.906 0v-3.376z" fill="#0B6E4F"></path>
    <path d="M250.585 44.414H239.68v3.376a5.452 5.452 0 1010.905 0v-3.376z" fill="#08A045"></path>
    <path d="M217.868 44.414h-10.905v3.376a5.453 5.453 0 1010.905 0v-3.376z" fill="#0B6E4F"></path>
    <path d="M228.774 44.414h-10.906v3.376a5.453 5.453 0 1010.906 0v-3.376z" fill="#08A045"></path>
    <path d="M196.057 44.414h-10.906v3.376a5.453 5.453 0 0010.906 0v-3.376z" fill="#0B6E4F"></path>
    <path d="M206.963 44.414h-10.906v3.376a5.453 5.453 0 0010.906 0v-3.376z" fill="#08A045"></path>
    <path d="M174.245 44.414H163.34v3.376a5.452 5.452 0 1010.905 0v-3.376z" fill="#0B6E4F"></path>
    <path d="M185.151 44.414h-10.906v3.376a5.453 5.453 0 1010.906 0v-3.376z" fill="#08A045"></path>
    <path d="M152.434 44.414h-10.906v3.376a5.453 5.453 0 1010.906 0v-3.376z" fill="#0B6E4F"></path>
    <path d="M163.34 44.414h-10.906v3.376a5.453 5.453 0 0010.906 0v-3.376z" fill="#08A045"></path>
    <path d="M141.528 23.994h-10.905v20.42h10.905v-20.42z" fill="#1ED166"></path>
    <path d="M152.434 23.994h-10.906v20.42h10.906v-20.42z" fill="#08A045"></path>
    <path d="M163.34 23.994h-10.906v20.42h10.906v-20.42z" fill="#1ED166"></path>
    <path d="M174.245 23.994H163.34v20.42h10.905v-20.42z" fill="#08A045"></path>
    <path d="M185.151 23.994h-10.906v20.42h10.906v-20.42z" fill="#1ED166"></path>
    <path d="M196.057 23.994h-10.906v20.42h10.906v-20.42z" fill="#08A045"></path>
    <path d="M206.963 23.994h-10.906v20.42h10.906v-20.42z" fill="#1ED166"></path>
    <path d="M217.868 23.994h-10.905v20.42h10.905v-20.42z" fill="#08A045"></path>
    <path d="M228.774 23.994h-10.906v20.42h10.906v-20.42z" fill="#1ED166"></path>
    <path d="M239.68 23.994h-10.906v20.42h10.906v-20.42z" fill="#08A045"></path>
    <path d="M250.585 23.994H239.68v20.42h10.905v-20.42z" fill="#1ED166"></path>
    <path d="M261.491 23.994h-10.906v20.42h10.906v-20.42z" fill="#08A045"></path>
    <path d="M272.397 23.994h-10.906v20.42h10.906v-20.42z" fill="#1ED166"></path>
    <path d="M283.302 23.994h-10.905v20.42h10.905v-20.42z" fill="#08A045"></path>
    <path d="M294.208 23.994h-10.906v20.42h10.906v-20.42z" fill="#1ED166"></path>
    <path d="M305.114 23.994h-10.906v20.42h10.906v-20.42z" fill="#08A045"></path>
    <path d="M305.114 23.994H119.717v104.828h185.397V23.994z" stroke="#5C6770" stroke-width=".5"
          stroke-miterlimit="10"></path>
    <path d="M256.038 182.935h-83.435M162.155 182.936h-20.897M288.298 182.936h-20.897" stroke="#5C6770"
          stroke-width=".861" stroke-miterlimit="10"></path>
    <path d="M308.226 170.38c14.787 0 26.774-11.988 26.774-26.775 0-14.787-11.987-26.774-26.774-26.774s-26.775 11.987-26.775 26.774 11.988 26.775 26.775 26.775z"
          fill="#08A045" stroke="#073B3A" stroke-miterlimit="10"></path>
    <path d="M303.519 152.809l-9.712-9.713a1.785 1.785 0 112.525-2.524l7.491 7.492 16.469-12.703a1.782 1.782 0 012.503.323 1.786 1.786 0 01-.325 2.504l-18.951 14.621z"
          fill="#fff"></path>
</svg>