<svg xmlns="http://www.w3.org/2000/svg" width="180" height="50" fill="none" viewBox="0 0 180 36">
    <defs></defs>
    <path fill="#fff"
          d="M84.1796 29.9033h3.5569l4.9581-18.4311v18.4311h3.988V5.54407h-5.497L86.2275 23.4363l-4.958-17.89223h-5.6048V29.9033h3.4491V11.4722l5.0658 18.4311zm29.2094-12.0718c0-4.3114-2.155-5.9282-6.575-5.9282-2.802 0-4.958.8623-6.251 1.6168v3.4491c1.078-.8623 3.557-1.7245 5.712-1.7245 2.048 0 2.911.7545 2.911 2.5868v.9701h-.647c-6.359 0-9.2695 2.1556-9.2695 5.7125s2.1555 5.6048 5.3895 5.6048c2.479 0 3.557-.7545 4.311-1.6167h.216c0 .4311.215 1.0778.323 1.4011h4.096c-.108-1.4011-.216-2.9101-.216-4.3113v-7.7605zm-4.203 7.8683c-.539.7544-1.509 1.4012-3.018 1.4012-1.725 0-2.587-1.0779-2.587-2.5869 0-2.0479 1.401-2.8024 5.066-2.8024h.646v3.9881h-.107zm11.425-13.4731h-3.88v22.7425h4.203v-7.1138c1.078 1.6168 2.587 2.3713 4.419 2.3713 4.096 0 6.898-3.2335 6.898-9.1617 0-5.9281-2.694-9.1617-6.682-9.1617-1.94 0-3.557.8623-4.743 2.5869l-.215-2.2635zm3.557 14.7665c-2.156 0-3.342-1.8324-3.342-5.8204 0-4.0958 1.186-5.9281 3.557-5.9281 2.264 0 3.449 1.8323 3.449 5.8203 0 4.0958-1.185 5.9282-3.664 5.9282zm21.125 2.9101h4.743l-6.683-9.485 5.928-8.1916h-4.203l-5.928 8.1916v-8.1916h-4.204v17.6766h4.204v-8.6227l6.143 8.6227zm18.755-1.1856v-3.4491c-1.294.8623-3.449 1.6168-5.497 1.6168-3.018 0-4.204-1.4012-4.419-4.4192h10.024v-2.2634c0-6.1438-2.695-8.4072-6.899-8.4072-5.065 0-7.544 3.8802-7.544 9.2694 0 6.1437 3.018 9.1617 8.299 9.1617 2.91 0 4.85-.6467 6.036-1.509zm-6.791-13.473c2.048 0 2.695 1.7245 2.695 3.8802v.3234h-5.82c.108-2.8024 1.185-4.2036 3.125-4.2036zm21.881.3233v-3.3413h-14.012v3.3413h4.958v14.3353h4.203V15.568h4.851z"></path>
    <path fill="#fff" fill-rule="evenodd"
          d="M32.3353 18.0471c0 8.9291-7.2385 16.1676-16.1676 16.1676C7.23851 34.2147 0 26.9762 0 18.0471 0 9.1179 7.23851 1.87939 16.1677 1.87939c8.9291 0 16.1676 7.23851 16.1676 16.16771zm-15.4132-7.1138h1.7245v16.8143h3.2336V8.34644h-4.9581c-4.9581 0-7.54492 2.58686-7.54492 6.35926 0 3.018 1.40122 4.7425 3.98802 6.5749l-4.41916 6.5748h3.77246l4.6347-7.2215-1.6167-1.1857c-2.0479-1.4012-3.018-2.5868-3.018-4.9581 0-2.1556 1.4012-3.5568 4.2036-3.5568z"
          clip-rule="evenodd"></path>
    <path fill="#fff"
          d="M65.5577 24.5977c-2.5081 5.6713-8.1786 9.617-14.7913 9.617-5.6323 0-10.6237-2.8624-13.5219-7.2154l5.6539-7.3354-1.0778 7.6527 5.9281 2.0479 7.2216-11.533c-.3234 2.1557-.8623 7.1138 3.8802 8.6228 2.3598.7182 4.6219-.1371 6.7072-1.8566z"></path>
    <path fill="#fff"
          d="M66.6271 14.8875c-2.3156 3.4874-4.5446 5.9502-5.7287 5.6386-2.0479-.5389-.2156-7.1137.9701-11.31732V9.101l-6.5749-2.26348-7.8682 12.82638 1.0778-7.006-5.7126-1.9401-7.8712 10.7114c-.2235-1.0904-.3347-2.2217-.3207-3.3821 0-8.94615 7.2216-16.16771 16.1677-16.16771 7.8645 0 14.3962 5.58089 15.8607 13.00811z"></path>
</svg>